<?xml version="1.0" encoding="utf-8"?>
<!-- Generator: Adobe Illustrator 24.3.0, SVG Export Plug-In . SVG Version: 6.00 Build 0)  -->
<svg version="1.1" xmlns="http://www.w3.org/2000/svg" xmlns:xlink="http://www.w3.org/1999/xlink" x="0px" y="0px"
	 viewBox="0 0 500 406" style="enable-background:new 0 0 500 406;" xml:space="preserve">
<style type="text/css">
	.st0{fill:#F0F0F0;}
	.st1{fill:#E0E0E0;}
	.st2{fill:#27DEBF;}
	.st3{opacity:0.1;}
	.st4{fill:#FFFFFF;}
	.st5{opacity:0.2;}
	.st6{fill:#EBEBEB;}
	.st7{fill:#FAFAFA;}
	.st8{fill:#263238;}
	.st9{fill:none;stroke:#EBEBEB;stroke-width:0.5692;stroke-linecap:round;stroke-miterlimit:10;}
	.st10{fill:none;stroke:#27DEBF;stroke-width:0.5692;stroke-linecap:round;stroke-miterlimit:10;}
	.st11{opacity:0.25;}
	.st12{fill:#455A64;}
	.st13{fill:#F28F8F;}
	.st14{fill:#FFA8A7;}
	.st15{fill:#37474F;}
	.st16{fill:#F5F5F5;}
	.st17{opacity:0.3;}
</style>
<g id="Floor">
	<path id="Floor_4_" class="st0" d="M88.66,357.53c89.58,51.57,234.81,51.57,324.39,0c89.58-51.57,89.58-135.17,0-186.74
		c-89.58-51.57-234.81-51.57-324.39,0C-0.92,222.36-0.92,305.96,88.66,357.53z"/>
</g>
<g id="Shadow">
	<path id="Shadows_1_" class="st1" d="M74.26,301.73l139,80.25c2.49,1.44,6.53,1.44,9.02,0l210.88-121.75
		c2.49-1.44,2.49-3.77,0-5.21l-138.99-80.25c-2.49-1.44-6.53-1.44-9.02,0L74.26,296.53C71.77,297.96,71.77,300.29,74.26,301.73z"/>
	<path id="Shadow_3_" class="st1" d="M415.57,181.49c-16.4-6.57-42.56-6.57-58.42,0c-15.86,6.57-15.86,17.22,0,23.78
		c15.86,6.57,42.01,6.57,58.42,0C431.97,198.7,431.97,188.06,415.57,181.49z"/>
	<ellipse id="Shadow_2_" class="st1" cx="85.75" cy="239.99" rx="33.63" ry="16.03"/>
</g>
<g id="Plants">
	<g id="Plants_4_">
		<g id="XMLID_1237_">
			<path id="XMLID_1241_" class="st2" d="M65.21,210.94c-0.51-6.35-5.41-17.18-12.66-24.9c-7.25-7.72-18.86-11.43-26.01-8.32
				c-6.67,2.9-5.2,11.83,3.6,17.12c8.8,5.29,21.9,11.77,26.39,21.78l8.69,12.02V210.94z"/>
			<path id="XMLID_1240_" class="st3" d="M65.21,210.94c-0.51-6.35-5.41-17.18-12.66-24.9c-7.25-7.72-18.86-11.43-26.01-8.32
				c-6.67,2.9-5.2,11.83,3.6,17.12c8.8,5.29,21.9,11.77,26.39,21.78l8.69,12.02V210.94z"/>
			<g id="XMLID_1238_">
				<path id="XMLID_1239_" class="st4" d="M66.13,219.26c0.05,0,0.09-0.01,0.14-0.02c0.23-0.08,0.36-0.33,0.28-0.56
					c-7.14-21.54-27.38-35.98-35.79-37.36c-0.23-0.04-0.47,0.12-0.51,0.36c-0.04,0.24,0.12,0.47,0.36,0.51
					c8.22,1.35,28.07,15.55,35.09,36.77C65.77,219.14,65.94,219.26,66.13,219.26z"/>
			</g>
		</g>
		<g id="XMLID_1235_">
			<path id="XMLID_1236_" class="st2" d="M64.26,237.16c-1.31-3.49-6.14-9.03-13.59-13.33c-8.23-4.76-18.31-6.44-20.92-10.44
				c-3.14-4.81,0.72-9.91,8.82-9.56c8.09,0.35,23.06,10.15,26.64,26.43L64.26,237.16z"/>
		</g>
		<g id="XMLID_1233_">
			<path id="XMLID_1234_" class="st4" d="M64.64,230.55c0.07,0,0.13-0.01,0.2-0.05c0.22-0.11,0.3-0.37,0.2-0.59
				c-6.97-13.87-21.67-20.35-29.26-22c-0.24-0.05-0.47,0.1-0.52,0.34c-0.05,0.24,0.1,0.47,0.34,0.52
				c7.44,1.61,21.84,7.96,28.66,21.54C64.32,230.46,64.48,230.55,64.64,230.55z"/>
		</g>
	</g>
</g>
<g id="Notebook_1_">
	<g id="Notebook_2_">
		<g id="XMLID_220_">
			<path id="XMLID_224_" class="st2" d="M178.43,231.99v-2.74l103.9-57.24c1.36-0.79,3.57-0.79,4.93,0l144.07,81.29
				c0,0,0,2.21,0,2.72c0,0.52-0.34,1.03-1.02,1.42l-103.9,59.98L178.43,231.99z"/>
			<path id="XMLID_223_" class="st3" d="M431.33,256.02c0-0.51,0-2.72,0-2.72l-1.76-0.99l-103.16,62.38v2.74l103.9-59.98
				C430.99,257.05,431.33,256.54,431.33,256.02z"/>
			<path id="XMLID_222_" class="st2" d="M178.43,229.25l103.9-59.98c1.36-0.79,3.57-0.79,4.93,0l143.05,82.59
				c1.36,0.79,1.36,2.06,0,2.85l-103.9,59.98L178.43,229.25z"/>
			<polygon id="XMLID_221_" class="st5" points="326.41,317.43 326.41,314.69 178.43,229.25 178.43,231.99 			"/>
		</g>
		<g id="XMLID_216_">
			<path id="XMLID_219_" class="st2" d="M180.8,233.31l-105.03,55.3l-2.16,3.4v2.73c0,1.37,0.79,2.6,2.16,3.4l138.42,79.92
				c1,0.58,2.28,0.89,3.6,0.89c1.32,0,2.6-0.32,3.6-0.89l102.69-59.29v-2.73L180.8,233.31z"/>
			<path id="XMLID_218_" class="st3" d="M180.8,233.31l-105.03,55.3l-2.16,3.4v2.73c0,1.37,0.79,2.6,2.16,3.4l138.42,79.92
				c1,0.58,2.28,0.89,3.6,0.89c1.32,0,2.6-0.32,3.6-0.89l102.69-59.29v-2.73L180.8,233.31z"/>
			<path id="XMLID_217_" class="st2" d="M217.8,376.21c-1.32,0-2.6-0.32-3.6-0.89L75.77,295.4c-1.37-0.79-2.16-2.03-2.16-3.4
				c0-1.37,0.79-2.6,2.16-3.4l100.41-57.97l147.91,85.4L221.4,375.32C220.4,375.89,219.12,376.21,217.8,376.21z"/>
		</g>
		<g id="XMLID_212_">
			<path id="XMLID_215_" class="st6" d="M176.18,222.61l-99.27,57.31l-1.02,1.42V292v0c0,0.51,0.34,1.03,1.02,1.42l138.43,79.92
				c1.36,0.79,3.57,0.79,4.93,0l99.27-57.31v-10.65L176.18,222.61z"/>
			<path id="XMLID_214_" class="st0" d="M319.54,305.38l-1.24,0.72l-16.15,9.32l-3.01,1.74l-78.87,45.53
				c-1.37,0.79-3.57,0.79-4.93,0L76.9,282.77c-1.35-0.79-1.35-2.06,0-2.85l1.32-0.76l97.95-56.55l142.13,82.06l0.3,0.18
				L319.54,305.38z"/>
			<path id="XMLID_213_" class="st1" d="M217.8,363.29v10.65c-0.89,0-1.79-0.19-2.46-0.59L76.9,293.42
				c-0.67-0.39-1.01-0.9-1.01-1.42v-10.65c0,0.51,0.34,1.02,1.01,1.42l138.43,79.93C216.01,363.09,216.91,363.29,217.8,363.29z"/>
		</g>
		<path id="XMLID_211_" class="st7" d="M319.54,303.96l-17.87,10.31l-2.8,1.62l-78.6,45.38c-1.37,0.79-3.57,0.79-4.93,0L91.37,289.7
			c-1.12-0.61-2.15-1.22-3.12-1.8c-5.04-3.07-8.08-5.82-10.03-8.74c-0.08-0.13-0.16-0.24-0.24-0.36c-0.16-0.24-0.26-0.49-0.31-0.74
			c-0.23-1.09,0.5-2.14,1.73-2.5c2.4-0.72,6.03-1.99,9.35-3.89c0.05-0.02,0.08-0.05,0.13-0.07l87.3-50.4L319.54,303.96z"/>
		<g id="XMLID_169_">
			<g id="XMLID_206_">
				<path id="XMLID_210_" class="st3" d="M301.04,302.71c-1.26,0.74-1.26,1.93,0,2.67c1.26,0.74,3.33,0.74,4.6,0
					c1.28-0.74,1.28-1.93,0-2.67C304.36,301.97,302.3,301.97,301.04,302.71z"/>
				<path id="XMLID_208_" class="st8" d="M315.83,294.08c-1.75-1.01-3.95-0.85-6.19,0.43c-3.47,2.01-6.48,6.5-7.79,11.2
					c0.52,0.17,1.12,0.24,1.7,0.2c1.21-4.19,3.87-8.14,6.94-9.93c1-0.57,1.96-0.87,2.82-0.87c0.6,0,1.16,0.15,1.66,0.43
					c1.48,0.85,2.33,2.94,2.33,5.7c0,0.46-0.02,0.91-0.08,1.37l1.62,0.93c0.11-0.77,0.17-1.55,0.17-2.3
					C319.02,297.87,317.85,295.25,315.83,294.08z"/>
				<path id="XMLID_207_" class="st8" d="M318.69,304.45c-0.01,0.13-0.05,0.26-0.08,0.4l-0.3-0.18L318.69,304.45z"/>
			</g>
			<g id="XMLID_202_">
				<path id="XMLID_205_" class="st3" d="M287.17,294.7c-1.26,0.74-1.26,1.93,0,2.67c1.26,0.74,3.33,0.74,4.6,0
					c1.28-0.74,1.28-1.93,0-2.67C290.49,293.96,288.43,293.96,287.17,294.7z"/>
				<path id="XMLID_203_" class="st8" d="M301.96,286.07c-1.75-1.01-3.95-0.85-6.19,0.43c-3.47,2.02-6.48,6.5-7.79,11.2
					c0.52,0.17,1.12,0.24,1.7,0.2c1.21-4.19,3.87-8.14,6.94-9.93c1-0.57,1.96-0.87,2.82-0.87c0.6,0,1.16,0.15,1.66,0.43
					c1.48,0.85,2.33,2.94,2.33,5.7c0,0.46-0.02,0.91-0.08,1.37l1.62,0.93c0.11-0.77,0.17-1.55,0.17-2.3
					C305.14,289.86,303.98,287.24,301.96,286.07z"/>
			</g>
			<g id="XMLID_198_">
				<path id="XMLID_201_" class="st3" d="M273.29,286.69c-1.26,0.74-1.26,1.93,0,2.67c1.26,0.74,3.33,0.74,4.6,0
					c1.28-0.74,1.28-1.93,0-2.67C276.62,285.95,274.56,285.95,273.29,286.69z"/>
				<path id="XMLID_199_" class="st8" d="M288.08,278.06c-1.75-1.01-3.95-0.85-6.19,0.43c-3.47,2.02-6.48,6.5-7.79,11.2
					c0.52,0.17,1.12,0.24,1.7,0.2c1.21-4.19,3.87-8.14,6.94-9.93c1-0.57,1.96-0.87,2.82-0.87c0.6,0,1.16,0.15,1.66,0.43
					c1.48,0.85,2.33,2.94,2.33,5.7c0,0.46-0.02,0.91-0.08,1.37l1.62,0.93c0.11-0.77,0.17-1.55,0.17-2.3
					C291.27,281.85,290.11,279.23,288.08,278.06z"/>
			</g>
			<g id="XMLID_194_">
				<path id="XMLID_197_" class="st3" d="M259.42,278.68c-1.26,0.74-1.26,1.93,0,2.67c1.26,0.74,3.33,0.74,4.6,0
					c1.28-0.74,1.28-1.93,0-2.67C262.74,277.94,260.68,277.94,259.42,278.68z"/>
				<path id="XMLID_195_" class="st8" d="M274.21,270.05c-1.75-1.01-3.95-0.85-6.19,0.43c-3.47,2.01-6.48,6.5-7.79,11.2
					c0.52,0.17,1.12,0.24,1.7,0.2c1.21-4.19,3.87-8.14,6.94-9.93c1-0.57,1.96-0.87,2.82-0.87c0.6,0,1.16,0.15,1.66,0.43
					c1.48,0.85,2.33,2.94,2.33,5.7c0,0.46-0.02,0.91-0.08,1.37l1.62,0.93c0.11-0.77,0.17-1.55,0.17-2.3
					C277.4,273.84,276.24,271.22,274.21,270.05z"/>
			</g>
			<g id="XMLID_190_">
				<path id="XMLID_193_" class="st3" d="M245.54,270.67c-1.26,0.74-1.26,1.93,0,2.67c1.26,0.74,3.33,0.74,4.6,0
					c1.28-0.74,1.28-1.93,0-2.67C248.87,269.93,246.81,269.93,245.54,270.67z"/>
				<path id="XMLID_191_" class="st8" d="M260.34,262.04c-1.75-1.01-3.95-0.85-6.19,0.43c-3.47,2.01-6.48,6.5-7.79,11.2
					c0.52,0.17,1.12,0.24,1.7,0.2c1.21-4.19,3.87-8.14,6.94-9.93c1-0.57,1.96-0.87,2.82-0.87c0.6,0,1.16,0.15,1.66,0.43
					c1.48,0.85,2.33,2.94,2.33,5.7c0,0.46-0.02,0.91-0.08,1.37l1.62,0.93c0.11-0.77,0.17-1.55,0.17-2.3
					C263.52,265.83,262.36,263.21,260.34,262.04z"/>
			</g>
			<g id="XMLID_186_">
				<path id="XMLID_189_" class="st3" d="M231.67,262.66c-1.26,0.74-1.26,1.93,0,2.67c1.26,0.74,3.33,0.74,4.6,0
					c1.28-0.74,1.28-1.93,0-2.67C234.99,261.92,232.93,261.92,231.67,262.66z"/>
				<path id="XMLID_187_" class="st8" d="M246.46,254.03c-1.75-1.01-3.95-0.85-6.19,0.43c-3.47,2.02-6.48,6.5-7.79,11.2
					c0.52,0.17,1.12,0.24,1.7,0.2c1.21-4.19,3.87-8.14,6.94-9.93c1-0.57,1.96-0.87,2.82-0.87c0.6,0,1.16,0.15,1.66,0.43
					c1.48,0.85,2.33,2.94,2.33,5.7c0,0.46-0.02,0.91-0.08,1.37l1.62,0.93c0.11-0.77,0.17-1.55,0.17-2.3
					C249.65,257.82,248.49,255.2,246.46,254.03z"/>
			</g>
			<g id="XMLID_182_">
				<path id="XMLID_185_" class="st3" d="M217.8,254.65c-1.26,0.74-1.26,1.93,0,2.67c1.26,0.74,3.33,0.74,4.6,0
					c1.28-0.74,1.28-1.93,0-2.67C221.12,253.91,219.06,253.91,217.8,254.65z"/>
				<path id="XMLID_183_" class="st8" d="M232.59,246.02c-1.75-1.01-3.95-0.85-6.19,0.43c-3.47,2.01-6.48,6.5-7.79,11.2
					c0.52,0.17,1.12,0.24,1.7,0.2c1.21-4.19,3.87-8.14,6.94-9.93c1-0.57,1.96-0.87,2.82-0.87c0.6,0,1.16,0.15,1.66,0.43
					c1.48,0.85,2.33,2.94,2.33,5.7c0,0.46-0.02,0.91-0.08,1.37l1.62,0.93c0.11-0.77,0.17-1.55,0.17-2.3
					C235.78,249.81,234.61,247.19,232.59,246.02z"/>
			</g>
			<g id="XMLID_178_">
				<path id="XMLID_181_" class="st3" d="M203.92,246.64c-1.26,0.74-1.26,1.93,0,2.67c1.26,0.74,3.33,0.74,4.6,0
					c1.28-0.74,1.28-1.93,0-2.67S205.19,245.9,203.92,246.64z"/>
				<path id="XMLID_179_" class="st8" d="M218.71,238.01c-1.75-1.01-3.95-0.85-6.19,0.43c-3.47,2.01-6.48,6.5-7.79,11.2
					c0.52,0.17,1.12,0.24,1.7,0.2c1.21-4.19,3.87-8.14,6.94-9.93c1-0.57,1.96-0.87,2.82-0.87c0.6,0,1.16,0.15,1.66,0.43
					c1.48,0.85,2.33,2.94,2.33,5.7c0,0.46-0.02,0.91-0.08,1.37l1.62,0.93c0.11-0.77,0.17-1.55,0.17-2.3
					C221.9,241.8,220.74,239.18,218.71,238.01z"/>
			</g>
			<g id="XMLID_174_">
				<path id="XMLID_177_" class="st3" d="M190.05,238.63c-1.26,0.74-1.26,1.93,0,2.67c1.26,0.74,3.33,0.74,4.6,0
					c1.28-0.74,1.28-1.93,0-2.67C193.38,237.89,191.31,237.89,190.05,238.63z"/>
				<path id="XMLID_175_" class="st8" d="M204.84,230c-1.75-1.01-3.95-0.85-6.19,0.43c-3.47,2.01-6.48,6.5-7.79,11.2
					c0.52,0.17,1.12,0.24,1.7,0.2c1.21-4.19,3.87-8.14,6.94-9.93c1-0.57,1.96-0.87,2.82-0.87c0.6,0,1.16,0.15,1.66,0.43
					c1.48,0.85,2.33,2.94,2.33,5.7c0,0.46-0.02,0.91-0.08,1.37l1.62,0.93c0.11-0.77,0.17-1.55,0.17-2.3
					C208.03,233.79,206.87,231.17,204.84,230z"/>
			</g>
			<g id="XMLID_170_">
				<path id="XMLID_173_" class="st3" d="M176.17,230.62c-1.26,0.74-1.26,1.93,0,2.67c1.26,0.74,3.33,0.74,4.6,0
					c1.28-0.74,1.28-1.93,0-2.67C179.5,229.88,177.44,229.88,176.17,230.62z"/>
				<path id="XMLID_171_" class="st8" d="M190.97,221.99c-1.75-1.01-3.95-0.85-6.19,0.43c-3.47,2.01-6.48,6.5-7.79,11.2
					c0.52,0.17,1.12,0.24,1.7,0.2c1.21-4.19,3.87-8.14,6.94-9.93c1-0.57,1.96-0.87,2.82-0.87c0.6,0,1.16,0.15,1.66,0.43
					c1.48,0.85,2.33,2.94,2.33,5.7c0,0.46-0.02,0.91-0.08,1.37l1.62,0.93c0.11-0.77,0.17-1.55,0.17-2.3
					C194.15,225.78,192.99,223.16,190.97,221.99z"/>
			</g>
		</g>
		<g id="XMLID_155_">
			<line id="XMLID_168_" class="st9" x1="280.3" y1="301.33" x2="203.92" y2="345.43"/>
			<line id="XMLID_167_" class="st9" x1="271.05" y1="295.99" x2="194.68" y2="340.09"/>
			<line id="XMLID_166_" class="st9" x1="261.8" y1="290.65" x2="185.43" y2="334.75"/>
			<line id="XMLID_165_" class="st9" x1="252.55" y1="285.31" x2="176.18" y2="329.41"/>
			<line id="XMLID_164_" class="st9" x1="243.3" y1="279.97" x2="166.93" y2="324.07"/>
			<line id="XMLID_163_" class="st9" x1="234.05" y1="274.63" x2="157.68" y2="318.73"/>
			<line id="XMLID_162_" class="st9" x1="224.8" y1="269.29" x2="148.43" y2="313.38"/>
			<line id="XMLID_161_" class="st9" x1="215.55" y1="263.95" x2="139.18" y2="308.04"/>
			<line id="XMLID_160_" class="st9" x1="206.3" y1="258.61" x2="129.93" y2="302.7"/>
			<line id="XMLID_159_" class="st9" x1="197.05" y1="253.27" x2="120.68" y2="297.36"/>
			<line id="XMLID_158_" class="st9" x1="187.8" y1="247.93" x2="111.43" y2="292.02"/>
			<line id="XMLID_157_" class="st9" x1="178.55" y1="242.59" x2="102.18" y2="286.68"/>
			<line id="XMLID_156_" class="st9" x1="169.3" y1="237.25" x2="92.93" y2="281.34"/>
		</g>
		<g id="XMLID_152_">
			<line id="XMLID_154_" class="st10" x1="164.67" y1="234.6" x2="298.8" y2="312.01"/>
			<line id="XMLID_153_" class="st10" x1="294.1" y1="304.05" x2="213.32" y2="350.77"/>
		</g>
		<g id="XMLID_114_" class="st11">
			<g id="XMLID_145_">
				<path id="XMLID_149_" class="st12" d="M253.69,294.28c-0.7-1.07-2.01-1.5-3.12-2c-0.46-0.21-0.97-0.49-1.51-0.77
					c-0.71-1.13-1.64-2.97-0.4-3.2c0.74-0.14,2.17,0.64,2.97,0.87c0.45,0.13,0.35-0.52,0.03-0.65c-1.36-0.53-3.96-2.22-4.52,0.09
					c-0.15,0.63-0.01,1.37,0.31,2.13c-0.68-0.26-1.37-0.43-2-0.37c-0.64,0.06-1.19,0.08-1.41,0.83c-0.12,0.41,0.05,0.59,0.08,0.9
					c0.04,0.47,0.51,0.63,0.65,0.66c-0.07-0.01-0.28-0.04-0.73-0.05c-0.96-0.04-3.59-0.67-4.21,0.52c-0.25,0.5,0.32,1.18,0.24,1.37
					c-0.04,0.09-1.92,0.72-2.24,0.92c-0.15,0.09-0.05,0.61-0.13,0.66c-0.29,0.17-2.22-0.03-2.78,0.02
					c-1.53,0.13-5.32-0.44-4.82,1.91c0.05,0.26,0.26,0.22,0.31,0.63c0.04,0.34,0.08,0.5,0.12,0.57c-0.06-0.01-0.16,0.04-0.36,0.32
					c-0.13,0.18-0.66,0.13-0.85,0.36c-0.73,0.91,0.38,1.23-0.52,1.79c-1.27,0.8-3.93-0.82-5.22,0.08c-1.15,0.8,0.35,3.08-1.69,3.12
					c-0.45,0.01-0.19,0.67,0.15,0.7c1.9,0.17,1.7-0.19,2.06-1.75c0.6-2.54,4.38-0.79,6.5-1.37c0.25-0.07,0.27-0.37,0.15-0.56
					c-0.56-0.9,0.09-1.4,0.93-1.79c0.23-0.11,0.28-0.33,0.16-0.55c-0.23-0.41-1.03-1.68-0.54-2.27c0.11-0.14,1.99-0.25,2.25-0.26
					c1.65-0.09,3.29-0.17,4.94-0.09c0.23,0.01,0.41-0.26,0.32-0.47c-0.24-0.53,1.9-0.87,2.37-0.98c0.19-0.04,0.27-0.29,0.2-0.45
					c-1.02-2.54,2.74-1.6,4.3-1.36c0.3,0.05,0.52-0.19,0.43-0.48c-0.24-0.85-2.13-1.71,0.11-2.03c0.44-0.06,1.06,0.13,1.72,0.41
					c1.03,1.74,2.75,3.42,3.91,4.03C253.33,296.52,254.83,296,253.69,294.28z M253,294.74c0.47,0.63-1,0.12-1.18,0.04
					c-0.87-0.39-1.44-1.34-1.96-2.09c0.46,0.25,0.86,0.48,1.16,0.61C251.82,293.67,252.46,294,253,294.74z"/>
				<path id="XMLID_146_" class="st12" d="M215.49,310.37c-0.28-1.1-0.31-2.31,0.71-2.45c0.49-0.06,0.14-0.73-0.23-0.75
					c-1.38-0.04-1.82,1.15-1.64,2.6c-0.64-0.29-1.23-0.49-1.71-0.58c-0.9-0.17-1.48-0.2-1.78,0.72c-0.18,0.55,0.26,0.9,0.23,1.39
					c-0.05,0.72,0.67,0.42-0.41,0.71c-0.27,0.07-0.94-0.12-1.26-0.13c-1.09-0.05-1.19,0.02-1.86,0.58c-0.68,0.57,1,0.84-0.99,0.52
					c-0.51-0.08-1.03-0.34-1.56-0.22c-0.73,0.17-1.12,0.38-1,1.19c0.05,0.36,0.84,0.85,0.84,1.08c-0.04,1.76-1.91,0.27-2.62,0
					c-0.2-0.07-0.44,0.05-0.45,0.27c-0.03,0.87,0.58,1.17-0.68,1.25c-0.15,0.01-1.02-0.48-1.3-0.48c-0.81-0.02-1.56,1.06-2.62,0.97
					c-0.29-0.02-0.39,0.24-0.3,0.47c0.29,0.79,0.72,1.27-0.87,1.96c-0.04,0.02-1.88-0.23-1.84-0.23c-0.46-0.01-0.17,0.74,0.19,0.77
					c0.73,0.05,3.2,1.1,3.93,0.11c0.54-0.73-0.52-1.57-0.26-2.03c-0.17,0.3,1.41-0.43,1.58-0.49c0.26-0.09,0.9-0.35,1.24-0.34
					c0.22,0.01,0.41,0.36,0.64,0.36c0.31,0,0.64,0.15,0.92-0.02c0.21-0.13,0.35-0.52,0.46-0.59c0.28-0.18-0.36-0.41,0.19-0.6
					c0.4-0.14,0.75,0.27,1.12,0.39c0.6,0.19,1.5,0.63,2.01-0.01c0.66-0.83-0.56-1.41-0.44-1.97c0.26-1.25,2.04-0.3,2.86-0.86
					c0.13-0.09,0.16-0.25,0.12-0.38c-0.5-1.73,2.63-0.38,3.62-0.56c0.18-0.03,0.36-0.15,0.34-0.36c-0.02-0.16-0.39-1.07-0.39-1.09
					c0.25-1.04,1.67-0.92,2.33-0.75c0.63,2.1,2.3,4.23,4.12,3.66c0.13-0.04,0.24-0.17,0.23-0.32
					C218.81,312.78,217.19,311.35,215.49,310.37z M216.15,312.1c-0.06-0.11-0.15-0.28-0.24-0.5c0.61,0.45,1.18,0.98,1.28,1.26
					C217.54,313.91,216.32,312.39,216.15,312.1z"/>
			</g>
			<g id="XMLID_138_">
				<path id="XMLID_142_" class="st12" d="M243.25,321.64c-0.7-1.07-2.01-1.5-3.12-2c-0.46-0.21-0.97-0.49-1.51-0.77
					c-0.71-1.13-1.64-2.97-0.4-3.2c0.74-0.14,2.17,0.64,2.97,0.87c0.45,0.13,0.35-0.52,0.03-0.65c-1.36-0.53-3.96-2.22-4.52,0.09
					c-0.15,0.63-0.01,1.37,0.31,2.13c-0.68-0.26-1.37-0.43-2-0.37c-0.64,0.06-1.19,0.08-1.41,0.83c-0.12,0.41,0.05,0.59,0.08,0.9
					c0.04,0.47,0.51,0.63,0.65,0.66c-0.07-0.01-0.28-0.04-0.73-0.05c-0.96-0.04-3.59-0.67-4.21,0.52c-0.25,0.5,0.32,1.18,0.24,1.37
					c-0.04,0.09-1.92,0.72-2.24,0.92c-0.15,0.09-0.05,0.61-0.13,0.66c-0.29,0.17-2.22-0.03-2.78,0.02
					c-1.53,0.13-5.32-0.44-4.82,1.91c0.05,0.26,0.26,0.22,0.31,0.63c0.04,0.34,0.08,0.5,0.12,0.57c-0.06-0.01-0.16,0.04-0.36,0.32
					c-0.13,0.18-0.66,0.13-0.85,0.36c-0.73,0.91,0.38,1.23-0.52,1.79c-1.27,0.8-3.93-0.82-5.22,0.08c-1.15,0.8,0.35,3.08-1.69,3.12
					c-0.45,0.01-0.19,0.67,0.15,0.7c1.9,0.17,1.7-0.19,2.06-1.75c0.6-2.54,4.38-0.79,6.5-1.37c0.25-0.07,0.27-0.37,0.15-0.56
					c-0.56-0.9,0.09-1.4,0.93-1.79c0.23-0.11,0.28-0.33,0.16-0.55c-0.23-0.41-1.03-1.68-0.54-2.27c0.11-0.14,1.99-0.25,2.25-0.26
					c1.65-0.09,3.29-0.17,4.94-0.09c0.23,0.01,0.41-0.26,0.32-0.47c-0.24-0.53,1.9-0.87,2.37-0.98c0.19-0.04,0.27-0.29,0.2-0.45
					c-1.02-2.54,2.74-1.6,4.3-1.36c0.3,0.05,0.52-0.19,0.43-0.48c-0.24-0.85-2.13-1.71,0.11-2.03c0.44-0.06,1.06,0.13,1.72,0.41
					c1.03,1.74,2.75,3.42,3.91,4.03C242.88,323.88,244.39,323.37,243.25,321.64z M242.56,322.1c0.47,0.63-1,0.12-1.18,0.04
					c-0.87-0.39-1.44-1.34-1.96-2.09c0.46,0.25,0.86,0.48,1.16,0.61C241.38,321.04,242.01,321.37,242.56,322.1z"/>
				<path id="XMLID_139_" class="st12" d="M266.72,302.24c-0.28-1.1-0.31-2.31,0.71-2.45c0.49-0.06,0.14-0.73-0.23-0.75
					c-1.38-0.04-1.82,1.15-1.64,2.6c-0.64-0.29-1.23-0.49-1.71-0.58c-0.9-0.17-1.48-0.2-1.78,0.72c-0.18,0.55,0.26,0.9,0.23,1.39
					c-0.05,0.72,0.67,0.42-0.41,0.71c-0.27,0.07-0.94-0.12-1.26-0.13c-1.09-0.05-1.19,0.02-1.86,0.58c-0.68,0.57,1,0.84-0.99,0.52
					c-0.51-0.08-1.03-0.34-1.56-0.22c-0.73,0.17-1.12,0.38-1,1.19c0.05,0.36,0.84,0.85,0.84,1.08c-0.04,1.76-1.91,0.27-2.62,0
					c-0.2-0.07-0.44,0.05-0.45,0.27c-0.03,0.87,0.58,1.17-0.68,1.25c-0.15,0.01-1.02-0.48-1.3-0.48c-0.81-0.02-1.56,1.06-2.62,0.97
					c-0.29-0.02-0.39,0.24-0.3,0.47c0.29,0.79,0.72,1.27-0.87,1.96c-0.04,0.02-1.88-0.23-1.84-0.23c-0.46-0.01-0.17,0.74,0.19,0.77
					c0.73,0.05,3.2,1.1,3.93,0.11c0.54-0.73-0.52-1.57-0.26-2.03c-0.17,0.3,1.41-0.43,1.58-0.49c0.26-0.09,0.9-0.35,1.24-0.34
					c0.22,0.01,0.41,0.36,0.64,0.36c0.31,0,0.64,0.15,0.92-0.02c0.21-0.13,0.35-0.52,0.46-0.59c0.28-0.18-0.36-0.41,0.19-0.6
					c0.4-0.14,0.75,0.27,1.12,0.39c0.6,0.19,1.5,0.63,2.01-0.01c0.66-0.83-0.56-1.41-0.44-1.97c0.26-1.25,2.04-0.3,2.86-0.86
					c0.13-0.09,0.16-0.25,0.12-0.38c-0.5-1.73,2.63-0.38,3.62-0.56c0.18-0.03,0.36-0.15,0.34-0.36c-0.02-0.16-0.39-1.07-0.39-1.09
					c0.25-1.04,1.67-0.92,2.33-0.75c0.63,2.1,2.3,4.23,4.12,3.66c0.13-0.04,0.24-0.17,0.23-0.32
					C270.04,304.65,268.42,303.22,266.72,302.24z M267.38,303.97c-0.06-0.11-0.15-0.28-0.24-0.5c0.61,0.45,1.18,0.98,1.28,1.26
					C268.77,305.78,267.55,304.26,267.38,303.97z"/>
			</g>
			<g id="XMLID_131_">
				<path id="XMLID_135_" class="st12" d="M197.28,263.09c-0.7-1.07-2.01-1.5-3.12-2c-0.46-0.21-0.97-0.49-1.51-0.77
					c-0.71-1.13-1.64-2.97-0.4-3.2c0.74-0.14,2.17,0.64,2.97,0.87c0.45,0.13,0.35-0.52,0.03-0.65c-1.36-0.53-3.96-2.22-4.52,0.09
					c-0.15,0.63-0.01,1.37,0.31,2.13c-0.68-0.26-1.37-0.43-2-0.37c-0.64,0.06-1.19,0.08-1.41,0.83c-0.12,0.41,0.05,0.59,0.08,0.9
					c0.04,0.47,0.51,0.63,0.65,0.66c-0.07-0.01-0.28-0.04-0.73-0.05c-0.96-0.04-3.59-0.67-4.21,0.52c-0.25,0.5,0.32,1.18,0.24,1.37
					c-0.04,0.09-1.92,0.72-2.24,0.92c-0.15,0.09-0.05,0.61-0.13,0.66c-0.29,0.16-2.22-0.03-2.78,0.02
					c-1.53,0.13-5.32-0.44-4.82,1.91c0.05,0.26,0.26,0.22,0.31,0.63c0.04,0.34,0.08,0.5,0.12,0.57c-0.06-0.01-0.16,0.04-0.36,0.32
					c-0.13,0.18-0.66,0.12-0.85,0.36c-0.73,0.91,0.38,1.23-0.52,1.79c-1.27,0.8-3.93-0.82-5.22,0.08c-1.15,0.8,0.35,3.08-1.69,3.12
					c-0.45,0.01-0.19,0.67,0.15,0.7c1.9,0.17,1.7-0.19,2.06-1.75c0.6-2.54,4.38-0.79,6.5-1.37c0.25-0.07,0.27-0.37,0.15-0.56
					c-0.56-0.9,0.09-1.4,0.93-1.79c0.23-0.11,0.28-0.33,0.16-0.55c-0.23-0.41-1.03-1.68-0.54-2.27c0.11-0.14,1.99-0.25,2.25-0.26
					c1.65-0.09,3.29-0.17,4.94-0.09c0.23,0.01,0.41-0.26,0.32-0.47c-0.24-0.53,1.9-0.87,2.37-0.98c0.19-0.04,0.27-0.29,0.2-0.45
					c-1.02-2.54,2.74-1.6,4.3-1.36c0.3,0.05,0.52-0.19,0.43-0.48c-0.24-0.85-2.13-1.71,0.11-2.03c0.44-0.06,1.06,0.13,1.72,0.41
					c1.03,1.74,2.75,3.42,3.91,4.03C196.91,265.33,198.42,264.82,197.28,263.09z M196.59,263.55c0.47,0.63-1,0.12-1.18,0.04
					c-0.87-0.39-1.44-1.34-1.96-2.09c0.46,0.25,0.86,0.48,1.16,0.61C195.41,262.49,196.04,262.82,196.59,263.55z"/>
				<path id="XMLID_132_" class="st12" d="M159.08,279.18c-0.28-1.1-0.31-2.31,0.71-2.45c0.49-0.06,0.14-0.73-0.23-0.75
					c-1.38-0.04-1.82,1.15-1.64,2.6c-0.64-0.29-1.23-0.49-1.71-0.58c-0.9-0.17-1.48-0.2-1.78,0.72c-0.18,0.55,0.26,0.9,0.23,1.39
					c-0.05,0.72,0.67,0.42-0.41,0.71c-0.27,0.07-0.94-0.12-1.26-0.13c-1.09-0.05-1.19,0.02-1.86,0.58c-0.68,0.57,1,0.84-0.99,0.52
					c-0.51-0.08-1.03-0.34-1.56-0.22c-0.73,0.17-1.12,0.38-1,1.19c0.05,0.36,0.84,0.85,0.84,1.08c-0.04,1.76-1.91,0.27-2.62,0
					c-0.2-0.07-0.44,0.05-0.45,0.27c-0.03,0.87,0.58,1.17-0.68,1.25c-0.15,0.01-1.02-0.48-1.3-0.48c-0.81-0.02-1.56,1.06-2.62,0.97
					c-0.29-0.02-0.39,0.24-0.3,0.47c0.29,0.79,0.72,1.27-0.87,1.96c-0.04,0.02-1.88-0.23-1.84-0.23c-0.46-0.01-0.17,0.74,0.19,0.77
					c0.73,0.05,3.2,1.1,3.93,0.11c0.54-0.73-0.52-1.57-0.26-2.03c-0.17,0.3,1.41-0.43,1.58-0.49c0.26-0.09,0.9-0.35,1.24-0.34
					c0.22,0.01,0.41,0.36,0.64,0.36c0.31,0,0.64,0.15,0.92-0.02c0.21-0.13,0.35-0.52,0.46-0.59c0.28-0.18-0.36-0.41,0.19-0.6
					c0.4-0.14,0.75,0.27,1.12,0.39c0.6,0.19,1.5,0.63,2.01-0.01c0.66-0.83-0.56-1.41-0.44-1.97c0.26-1.25,2.04-0.3,2.86-0.86
					c0.13-0.09,0.16-0.25,0.12-0.38c-0.5-1.73,2.63-0.38,3.62-0.56c0.18-0.03,0.36-0.15,0.34-0.36c-0.02-0.16-0.39-1.07-0.39-1.09
					c0.25-1.04,1.67-0.92,2.33-0.75c0.63,2.1,2.3,4.23,4.12,3.66c0.13-0.04,0.24-0.17,0.23-0.32
					C162.4,281.6,160.77,280.16,159.08,279.18z M159.73,280.91c-0.06-0.11-0.15-0.28-0.24-0.5c0.61,0.45,1.18,0.98,1.28,1.26
					C161.13,282.73,159.91,281.21,159.73,280.91z"/>
			</g>
			<g id="XMLID_124_">
				<path id="XMLID_128_" class="st12" d="M186.83,290.46c-0.7-1.07-2.01-1.5-3.12-2c-0.46-0.21-0.97-0.49-1.51-0.77
					c-0.71-1.13-1.64-2.97-0.4-3.2c0.74-0.14,2.17,0.64,2.97,0.87c0.45,0.13,0.35-0.52,0.03-0.65c-1.36-0.53-3.96-2.22-4.52,0.09
					c-0.15,0.63-0.01,1.37,0.31,2.13c-0.68-0.26-1.37-0.43-2-0.37c-0.64,0.06-1.19,0.08-1.41,0.83c-0.12,0.41,0.05,0.59,0.08,0.9
					c0.04,0.47,0.51,0.63,0.65,0.66c-0.07-0.01-0.28-0.04-0.73-0.05c-0.96-0.04-3.59-0.67-4.21,0.52c-0.25,0.5,0.32,1.18,0.24,1.37
					c-0.04,0.09-1.92,0.72-2.24,0.92c-0.15,0.09-0.05,0.61-0.13,0.66c-0.29,0.17-2.22-0.03-2.78,0.02
					c-1.53,0.13-5.32-0.44-4.82,1.91c0.05,0.26,0.26,0.22,0.31,0.63c0.04,0.34,0.08,0.5,0.12,0.57c-0.06-0.01-0.16,0.04-0.36,0.32
					c-0.13,0.18-0.66,0.12-0.85,0.36c-0.73,0.91,0.38,1.23-0.52,1.79c-1.27,0.8-3.93-0.82-5.22,0.08c-1.15,0.8,0.35,3.08-1.69,3.12
					c-0.45,0.01-0.19,0.67,0.15,0.7c1.9,0.17,1.7-0.19,2.06-1.75c0.6-2.54,4.38-0.79,6.5-1.37c0.25-0.07,0.27-0.37,0.15-0.56
					c-0.56-0.9,0.09-1.4,0.93-1.79c0.23-0.11,0.28-0.33,0.16-0.55c-0.23-0.41-1.03-1.68-0.54-2.27c0.11-0.14,1.99-0.25,2.25-0.26
					c1.65-0.09,3.29-0.17,4.94-0.09c0.23,0.01,0.41-0.26,0.32-0.47c-0.24-0.53,1.9-0.87,2.37-0.98c0.19-0.04,0.27-0.29,0.2-0.45
					c-1.02-2.54,2.74-1.6,4.3-1.36c0.3,0.05,0.52-0.19,0.43-0.48c-0.24-0.85-2.13-1.71,0.11-2.03c0.44-0.06,1.06,0.13,1.72,0.41
					c1.03,1.74,2.75,3.42,3.91,4.03C186.47,292.7,187.97,292.19,186.83,290.46z M186.14,290.92c0.47,0.63-1,0.12-1.18,0.04
					c-0.87-0.39-1.44-1.34-1.96-2.09c0.46,0.25,0.86,0.48,1.16,0.61C184.96,289.85,185.6,290.19,186.14,290.92z"/>
				<path id="XMLID_125_" class="st12" d="M210.31,271.05c-0.28-1.1-0.31-2.31,0.71-2.45c0.49-0.06,0.14-0.73-0.23-0.75
					c-1.38-0.04-1.82,1.15-1.64,2.6c-0.64-0.29-1.23-0.49-1.71-0.58c-0.9-0.17-1.48-0.2-1.78,0.72c-0.18,0.55,0.26,0.9,0.23,1.39
					c-0.05,0.72,0.67,0.42-0.41,0.71c-0.27,0.07-0.94-0.12-1.26-0.13c-1.09-0.05-1.19,0.02-1.86,0.58c-0.68,0.57,1,0.84-0.99,0.52
					c-0.51-0.08-1.03-0.34-1.56-0.22c-0.73,0.17-1.12,0.38-1,1.19c0.05,0.36,0.84,0.85,0.84,1.08c-0.04,1.76-1.91,0.27-2.62,0
					c-0.2-0.07-0.44,0.05-0.45,0.27c-0.03,0.87,0.58,1.17-0.68,1.25c-0.15,0.01-1.02-0.48-1.3-0.48c-0.81-0.02-1.56,1.06-2.62,0.97
					c-0.29-0.02-0.39,0.24-0.3,0.47c0.29,0.79,0.72,1.27-0.87,1.96c-0.04,0.02-1.88-0.23-1.84-0.23c-0.46-0.01-0.17,0.74,0.19,0.77
					c0.73,0.05,3.2,1.1,3.93,0.11c0.54-0.73-0.52-1.57-0.26-2.03c-0.17,0.3,1.41-0.43,1.58-0.49c0.26-0.09,0.9-0.35,1.24-0.34
					c0.22,0.01,0.41,0.36,0.64,0.36c0.31,0,0.64,0.15,0.92-0.02c0.21-0.13,0.35-0.52,0.46-0.59c0.28-0.18-0.36-0.41,0.19-0.6
					c0.4-0.14,0.75,0.27,1.12,0.39c0.6,0.19,1.5,0.63,2.01-0.01c0.66-0.83-0.56-1.41-0.44-1.97c0.26-1.25,2.04-0.3,2.86-0.86
					c0.13-0.09,0.16-0.25,0.12-0.38c-0.5-1.73,2.63-0.38,3.62-0.56c0.18-0.03,0.36-0.15,0.34-0.36c-0.02-0.16-0.39-1.07-0.39-1.09
					c0.25-1.04,1.67-0.92,2.33-0.75c0.63,2.1,2.3,4.23,4.12,3.66c0.13-0.04,0.24-0.17,0.23-0.32
					C213.62,273.47,212,272.03,210.31,271.05z M210.96,272.78c-0.06-0.11-0.15-0.28-0.24-0.5c0.61,0.45,1.18,0.98,1.28,1.26
					C212.35,274.6,211.13,273.08,210.96,272.78z"/>
			</g>
			<g id="XMLID_115_">
				<path id="XMLID_121_" class="st12" d="M192.63,309.29c-0.7-1.07-2.01-1.5-3.12-2c-0.46-0.21-0.97-0.49-1.51-0.77
					c-0.71-1.13-1.64-2.97-0.4-3.2c0.74-0.14,2.17,0.64,2.97,0.87c0.45,0.13,0.35-0.52,0.03-0.65c-1.36-0.53-3.96-2.22-4.52,0.09
					c-0.15,0.63-0.01,1.37,0.31,2.13c-0.68-0.26-1.37-0.43-2-0.37c-0.64,0.06-1.19,0.08-1.41,0.83c-0.12,0.41,0.05,0.59,0.08,0.9
					c0.04,0.47,0.51,0.63,0.65,0.66c-0.07-0.01-0.28-0.04-0.73-0.05c-0.96-0.04-3.59-0.67-4.21,0.52c-0.25,0.5,0.32,1.18,0.24,1.37
					c-0.04,0.09-1.92,0.72-2.24,0.92c-0.15,0.09-0.05,0.61-0.13,0.66c-0.29,0.17-2.22-0.03-2.78,0.02
					c-1.53,0.13-5.32-0.44-4.82,1.91c0.05,0.26,0.26,0.22,0.31,0.63c0.04,0.34,0.08,0.5,0.12,0.57c-0.06-0.01-0.16,0.04-0.36,0.32
					c-0.13,0.18-0.66,0.13-0.85,0.36c-0.73,0.91,0.38,1.23-0.52,1.79c-1.27,0.8-3.93-0.82-5.22,0.08c-1.15,0.8,0.35,3.08-1.69,3.12
					c-0.45,0.01-0.19,0.67,0.15,0.7c1.9,0.17,1.7-0.19,2.06-1.75c0.6-2.54,4.38-0.79,6.5-1.37c0.25-0.07,0.27-0.37,0.15-0.56
					c-0.56-0.9,0.09-1.4,0.93-1.79c0.23-0.11,0.28-0.33,0.16-0.55c-0.23-0.41-1.03-1.68-0.54-2.27c0.11-0.14,1.99-0.25,2.25-0.26
					c1.65-0.09,3.29-0.17,4.94-0.09c0.23,0.01,0.41-0.26,0.32-0.47c-0.24-0.53,1.9-0.87,2.37-0.98c0.19-0.04,0.27-0.29,0.2-0.45
					c-1.02-2.54,2.74-1.6,4.3-1.36c0.3,0.05,0.52-0.19,0.43-0.48c-0.24-0.85-2.13-1.71,0.11-2.03c0.44-0.06,1.06,0.13,1.72,0.41
					c1.03,1.74,2.75,3.42,3.91,4.03C192.27,311.53,193.77,311.02,192.63,309.29z M191.94,309.75c0.47,0.63-1,0.12-1.18,0.04
					c-0.87-0.39-1.44-1.34-1.96-2.09c0.46,0.25,0.86,0.48,1.16,0.61C190.76,308.68,191.4,309.02,191.94,309.75z"/>
				<path id="XMLID_118_" class="st12" d="M211.23,291.61c-0.28-1.1-0.31-2.31,0.71-2.45c0.49-0.06,0.14-0.73-0.23-0.75
					c-1.38-0.04-1.82,1.15-1.64,2.6c-0.64-0.29-1.23-0.49-1.71-0.58c-0.9-0.17-1.48-0.2-1.78,0.72c-0.18,0.55,0.26,0.9,0.23,1.39
					c-0.05,0.72,0.67,0.42-0.41,0.71c-0.27,0.07-0.94-0.12-1.26-0.13c-1.09-0.05-1.19,0.02-1.86,0.58c-0.68,0.57,1,0.84-0.99,0.52
					c-0.51-0.08-1.03-0.34-1.56-0.22c-0.73,0.17-1.12,0.38-1,1.19c0.05,0.36,0.84,0.85,0.84,1.08c-0.04,1.76-1.91,0.27-2.62,0
					c-0.2-0.07-0.44,0.05-0.45,0.27c-0.03,0.87,0.58,1.17-0.68,1.25c-0.15,0.01-1.02-0.48-1.3-0.48c-0.81-0.02-1.56,1.06-2.62,0.97
					c-0.29-0.02-0.39,0.24-0.3,0.47c0.29,0.79,0.72,1.27-0.87,1.96c-0.04,0.02-1.88-0.23-1.84-0.23c-0.46-0.01-0.17,0.74,0.19,0.77
					c0.73,0.05,3.2,1.1,3.93,0.11c0.54-0.73-0.52-1.57-0.26-2.03c-0.17,0.3,1.41-0.43,1.58-0.49c0.26-0.09,0.9-0.35,1.24-0.34
					c0.22,0.01,0.41,0.36,0.64,0.36c0.31,0,0.64,0.15,0.92-0.02c0.21-0.13,0.35-0.52,0.46-0.59c0.28-0.18-0.36-0.41,0.19-0.6
					c0.4-0.14,0.75,0.27,1.12,0.39c0.6,0.19,1.5,0.63,2.01-0.01c0.66-0.83-0.56-1.41-0.44-1.97c0.26-1.25,2.04-0.3,2.86-0.86
					c0.13-0.09,0.16-0.25,0.12-0.38c-0.5-1.73,2.63-0.38,3.62-0.56c0.18-0.03,0.36-0.15,0.34-0.36c-0.02-0.16-0.39-1.07-0.39-1.09
					c0.25-1.04,1.67-0.92,2.33-0.75c0.64,2.1,2.3,4.23,4.12,3.66c0.13-0.04,0.24-0.17,0.23-0.32
					C214.54,294.02,212.92,292.59,211.23,291.61z M211.88,293.34c-0.06-0.11-0.15-0.28-0.24-0.5c0.61,0.45,1.18,0.98,1.28,1.26
					C213.27,295.15,212.05,293.63,211.88,293.34z"/>
				<path id="XMLID_116_" class="st12" d="M232.52,277.28c0.02-0.14,0.03-0.28-0.01-0.42c-0.3-1.08-1.54-0.27-1.75,0.39
					c-0.18,0.55,0.26,0.9,0.23,1.39c-0.05,0.72,0.67,0.42-0.41,0.71c-0.27,0.07-0.94-0.12-1.26-0.13c-1.09-0.05-1.19,0.02-1.86,0.58
					c-0.68,0.57,1,0.84-0.99,0.52c-0.51-0.08-1.03-0.34-1.56-0.22c-0.73,0.17-1.12,0.38-1,1.19c0.05,0.36,0.84,0.85,0.84,1.08
					c-0.04,1.76-1.91,0.27-2.62,0c-0.2-0.07-0.44,0.05-0.45,0.27c-0.03,0.87,0.58,1.17-0.68,1.25c-0.15,0.01-1.02-0.48-1.3-0.48
					c-0.81-0.02-1.56,1.06-2.62,0.97c-0.29-0.02-0.39,0.24-0.3,0.47c0.29,0.79,0.72,1.27-0.87,1.96c-0.04,0.02-1.88-0.23-1.84-0.23
					c-0.46-0.01-0.17,0.74,0.19,0.77c0.73,0.05,3.2,1.1,3.93,0.11c0.54-0.73-0.52-1.57-0.26-2.03c-0.17,0.3,1.41-0.43,1.58-0.49
					c0.26-0.09,0.9-0.35,1.24-0.34c0.22,0.01,0.41,0.36,0.64,0.36c0.31,0,0.64,0.15,0.92-0.02c0.21-0.13,0.35-0.52,0.46-0.59
					c0.28-0.19-0.36-0.41,0.19-0.6c0.4-0.14,0.75,0.27,1.12,0.39c0.6,0.19,1.5,0.63,2.01-0.01c0.66-0.83-0.56-1.41-0.44-1.97
					c0.26-1.25,2.04-0.3,2.86-0.86c0.13-0.09,0.16-0.25,0.12-0.38c-0.5-1.73,2.63-0.38,3.62-0.56c0.18-0.03,0.36-0.15,0.34-0.36
					c-0.1-0.8-0.36-1.37-0.14-2.23C232.44,277.62,232.5,277.45,232.52,277.28z"/>
			</g>
		</g>
	</g>
</g>
<g id="Character">
	<g id="Character_1_">
		<g id="XMLID_1080_">
			<path id="XMLID_1081_" class="st13" d="M105.29,65.06c4.66,5.57,12.36,13.09,16.72,18.57c2.29,2.88,3.59,6.45,3.54,10.12
				c-0.04,2.73-0.78,5.01-3.45,3.85c-1.93-0.84-3.15-1.84-5.97-4.61c-2.53-2.5-14.77-13.97-14.77-13.97s-2.29-14.1-6.07-15.24
				c-3.78-1.15-7-7.18-7-7.18C94.46,55.98,99.38,58,105.29,65.06z"/>
		</g>
		<g id="XMLID_865_">
			<g id="XMLID_1103_">
				<g id="XMLID_1104_">
					<path id="XMLID_1483_" class="st14" d="M147.89,210.64l21.87,32.01c0.64,0.93,2.09,0.52,2.15-0.6l2.13-38.94L147.89,210.64z"/>
					<path id="XMLID_1482_" class="st8" d="M171.91,242.05c-0.06,1.13-1.52,1.53-2.15,0.6l-4.27-6.25l0,0
						c2.39,0.54,4.88-0.3,6.45-2.17l0.43-0.51L171.91,242.05z"/>
					<path id="XMLID_1481_" class="st2" d="M130.1,45.58l0.96,3.46l1.18,4.17l41.8,149.91c-1.9,3.93-5.56,6.68-9.61,8.24
						c-6.16,2.41-13.24,2.12-16.53-0.72l-41.49-148.8l-2.22-7.97C105.92,58.94,131.76,50.7,130.1,45.58z"/>
					<path id="XMLID_1128_" class="st6" d="M133.81,58.73l2.14,7.72c0.69,2.22-3.68,4.98-9.04,7.01c-7.12,2.71-16,4.12-16.92,1.18
						l-1.59-5.69l-0.53-2.04c0.93,2.94,9.8,1.53,16.93-1.18c5.14-1.95,9.38-4.59,9.07-6.75l-0.01-0.02
						C133.86,58.88,133.84,58.81,133.81,58.73z"/>
					<path id="XMLID_1125_" class="st2" d="M134.33,60.66c1.62,5.15-24.33,13.33-25.95,8.18l-2.17-7.72
						c1.62,5.15,27.57-3.03,25.95-8.18L134.33,60.66z"/>
					<path id="XMLID_1124_" class="st6" d="M130.1,45.58l2.14,7.62c1.63,5.04-23.34,13.19-25.83,8.63
						c-0.05-0.07-0.09-0.18-0.13-0.28l-2.1-7.7C105.92,58.94,131.76,50.7,130.1,45.58z"/>
					<path id="XMLID_1116_" class="st3" d="M106.41,61.83l-2.22-7.97c0.78,2.3,6.49,1.87,12.35,0.24l0,0l42.95,158.59l10.26,29.96
						l-21.87-32.01l0.02-0.01c0,0,0,0,0,0L106.41,61.83z"/>
					<path id="XMLID_1106_" class="st13" d="M121.04,13.22l9.06,32.36c0.71,2.19-3.6,4.95-8.91,6.99c-7.12,2.73-16.02,4.2-17,1.29
						c-0.01-0.01-0.01-0.01-0.02-0.03L95.46,22.7c-2.63-7.09,10.23-14.06,18.8-13.53C117.48,9.35,120.06,10.57,121.04,13.22z"/>
				</g>
			</g>
		</g>
		<g id="XMLID_16985_">
			<g id="XMLID_1913_">
				<g id="XMLID_16974_">
					<g id="XMLID_1974_">
						<path id="XMLID_2008_" class="st8" d="M83.08,51.45L83.08,51.45c-10.1,0-18.29-8.19-18.29-18.29v-1.01
							c0-8.56,6.94-15.5,15.5-15.5h5.58c8.56,0,15.5,6.94,15.5,15.5v1.01C101.37,43.26,93.18,51.45,83.08,51.45z"/>
					</g>
					<path id="XMLID_7_" class="st8" d="M57.36,53.31L57.36,53.31c4.59,0,8.31-3.72,8.31-8.31V28.49l0,0
						c-4.59,0-8.31,3.72-8.31,8.31V53.31z"/>
					<g id="XMLID_16975_">
						<path id="XMLID_2063_" class="st8" d="M101.9,232.38c2.12,2.32,4.47,4.19,6.98,6.07c0.38,0.28,0.77,0.58,0.97,1
							c0.33,0.68,0.84,2.38-2.28,3.47c-3.05,1.06-6.85,0.81-9.63-0.92c-2.56-1.6-2.68-4.94-5.09-6.84
							c-1.79-1.41-4.03-1.77-5.48-3.61c-1.01-1.28-0.75-2.99-0.22-5.1c0.57-2.31,0.84-4.05,1.6-3.88l-0.13,1.06
							c0.95,1.52,5.89,1.97,8.09,0.92C96.71,224.54,100.52,230.86,101.9,232.38z"/>
					</g>
					<g id="XMLID_1968_">
						<path id="XMLID_2061_" class="st14" d="M104.07,234.53c0,0,0-0.01,0-0.02c-0.74-0.68-1.47-1.38-2.17-2.14
							c-0.89-0.98-2.79-3.95-4.03-5.94c-0.75-1.21-1.68-2.74-1.72-4.34c-0.05-2.04,0.15-5.67,0.15-5.67l-7.31-0.48l-0.36,7.67l0,0
							c-0.19,1.74,1.25,3.28,3.79,5.48c2.55,2.19,5.78,7.31,8.08,8.6c2.3,1.29,3.95,1.24,4.94,0.58
							C106.45,237.59,106.55,237.07,104.07,234.53z"/>
					</g>
					<g id="XMLID_1085_">
						<path id="XMLID_1086_" class="st8" d="M77.55,239.69c2.12,2.32,4.47,4.19,6.98,6.07c0.38,0.28,0.77,0.58,0.97,1
							c0.33,0.68,0.84,2.38-2.28,3.47c-3.05,1.06-6.85,0.82-9.63-0.92c-2.56-1.6-2.68-4.94-5.1-6.84c-1.79-1.41-4.03-1.77-5.48-3.61
							c-1.01-1.28-0.75-2.99-0.22-5.1c0.57-2.31,0.84-4.05,1.6-3.88l-0.13,1.06c0.95,1.52,5.89,1.97,8.09,0.92
							C72.36,231.85,76.16,238.17,77.55,239.69z"/>
					</g>
					<g id="XMLID_1083_">
						<path id="XMLID_1084_" class="st14" d="M79.71,241.84c0,0,0-0.01,0-0.02c-0.74-0.68-1.47-1.38-2.17-2.14
							c-0.89-0.98-2.79-3.95-4.03-5.94c-0.75-1.21-1.6-2.82-1.71-4.42c-0.13-1.79-0.04-5.52-0.04-5.52l-7.31,0.04l-0.18,7.07l0,0
							c-0.19,1.74,1.25,3.28,3.79,5.48c2.55,2.19,5.78,7.31,8.08,8.6c2.3,1.29,3.95,1.24,4.94,0.58
							C82.1,244.9,82.2,244.38,79.71,241.84z"/>
					</g>
					<g id="XMLID_1964_">
						<path id="XMLID_2055_" class="st15" d="M64.36,105.34c-6.37,13.92,0.88,66.71,0.88,66.71c-0.19,2.26-2.18,5.77-2.42,12.67
							c-0.3,8.86,1.27,41.57,1.27,41.57s3.84,2.33,8.34,0.17c0,0,7.55-44.41,9.02-56.09c1.29-10.19,3.75-34.16,3.75-34.16l5.08,34.1
							c0,0-2.61,5.69-2.74,10.83c-0.18,6.9,0.84,38.93,0.84,38.93s3.09,1.08,8.47,0.29c0,0,7.68-43.34,8.4-51.61
							c0.43-4.94-3.26-65.51-3.26-65.51L64.36,105.34z"/>
					</g>
					<g id="XMLID_1963_">
						<path id="XMLID_2053_" class="st8" d="M85.21,136.21l2.07-11.38c0,0,8.76-1.81,12.73-5.55c0,0-4.17,5.18-10.35,6.88
							l-2.32,9.96l2.3,29.75L85.21,136.21z"/>
					</g>
					<g id="XMLID_1961_">
						<path id="XMLID_2051_" class="st16" d="M76.81,56.92L76.81,56.92c-5.59,0.77-8.59,2.01-10.4,7.26
							c-1.18,3.44-0.86,8.5,0.33,11.93l4.89,14.29c0,0-4.82,7.51-7.26,14.93c14.29,7.98,33.34,3.74,37.63-2.09
							c0.18-1.23-0.98-7.2-0.63-13.54c0.37-6.75,1.45-14.51,0.39-18.68c-1.97-7.75-7.38-12.81-13.47-14.44L76.81,56.92z"/>
					</g>
					<g id="XMLID_1951_">
						<path id="XMLID_2045_" class="st14" d="M95.36,24.05c1.93,1.14,4.32,6,4.08,16.19c-0.2,8.63-3,10.77-4.4,11.38
							s-4.11,0.24-6.75-0.2v5.18c0,0,3.64,4.23,3.41,6.6c-0.23,2.38-5.26,2.94-8.66,0.62c-3.41-2.32-5.59-5.85-5.59-5.85V45.44
							c0,0-1.78,2.38-4.69,0.44c-2.91-1.93-3.02-6.71-1.33-8.43c1.69-1.72,5.34-1.17,6.02,1.2c0,0,4.2,0.15,9.8-2.92
							C92.84,32.66,94.99,27.39,95.36,24.05z"/>
					</g>
					<g id="XMLID_1949_">
						<path id="XMLID_2043_" class="st8" d="M89.8,38.06c0.03,0.62-0.43,1.15-1.03,1.18c-0.6,0.03-1.11-0.45-1.14-1.07
							c-0.03-0.62,0.43-1.15,1.03-1.18C89.26,36.96,89.77,37.44,89.8,38.06z"/>
					</g>
					<g id="XMLID_1947_">
						<path id="XMLID_2041_" class="st13" d="M90.09,45.38l2.52,0.8c-0.21,0.72-0.94,1.13-1.64,0.9
							C90.28,46.87,89.88,46.1,90.09,45.38z"/>
					</g>
					<g id="XMLID_1941_">
						<path id="XMLID_2039_" class="st8" d="M98.71,34.73l-2.2-1.52c0.4-0.63,1.22-0.79,1.82-0.37
							C98.94,33.25,99.11,34.1,98.71,34.73z"/>
					</g>
					<g id="XMLID_1923_">
						<path id="XMLID_2037_" class="st8" d="M98.2,37.28c0.03,0.62-0.43,1.15-1.03,1.18c-0.6,0.03-1.11-0.45-1.14-1.07
							c-0.03-0.62,0.43-1.15,1.03-1.18C97.66,36.18,98.17,36.66,98.2,37.28z"/>
					</g>
					<g id="XMLID_1921_">
						<polygon id="XMLID_2035_" class="st13" points="93.08,36.66 93.25,43.19 96.69,42.13 						"/>
					</g>
					<g id="XMLID_1919_">
						<path id="XMLID_2031_" class="st13" d="M88.29,51.42c-2.78-0.36-8.49-2-9.38-4.26c0,0,0.3,1.42,2,2.88
							c1.71,1.46,7.38,3.11,7.38,3.11V51.42z"/>
					</g>
				</g>
			</g>
		</g>
		<g id="XMLID_856_">
			<path id="XMLID_857_" class="st14" d="M132.23,99c-1.7,0.64-3.4,0.68-5.72,1.78c-2.04,0.96-2.9,1.32-5,1.43
				c-2.28,0.11-8.64-2.6-14.24-5.21c-6.6-3.07-13.63-8.63-16.33-11.68c-5.49-6.2-10.17-13.95-12.59-18.09
				c-1.99-3.41-4.05-8.37-7.19-8.99c-5.5,0.58-7.74,10.16-4.17,16.08c3.57,5.92,9.91,13.66,16.68,20.23
				c3.28,3.18,9.29,6.63,17.89,10.31c6.49,2.78,11.7,4.5,17.37,5.98c1.72,0.45,2.94,1.09,6.18,2.2c1.31,0.45,2.72,0.98,4.1,1.02
				c1.75,0.05,3.51-0.1,5.21-0.56c2.13-0.57,4.16-1.64,5.7-3.22c0.85-0.87,1.55-1.91,1.91-3.07c0.36-1.16,0.36-2.45-0.12-3.57
				c-0.1-0.23-0.22-0.45-0.42-0.6c-0.36-0.27-0.85-0.22-1.29-0.15c-2.46,0.36-5.06,1.11-7.53,1.2c-2.09,0.08-3.58-0.15-3.31-0.48
				c0.26-0.33,1.5-0.29,3.08-1.19c1.52-0.86,2.49-2.61,1.94-3.42C133.84,98.19,133.93,98.36,132.23,99z"/>
		</g>
		<path id="XMLID_842_" class="st14" d="M136.86,75.9c0,0-2.27-1.81-6.6-1.1c-2.09,0.34-1.29,8.26,5.44,10.47
			c4.38,1.44,5.27,0.7,6.68,4.3c0,0,2.64-0.55,2-4.58c-0.64-4.03-2.4-7.7-5.34-11.17c-1.93-2.28-2.06-4.2-3.01-3.55
			c-1.07,0.73-0.42,2.62-0.42,2.62L136.86,75.9z"/>
	</g>
</g>
<g id="Coffee">
	<g id="Coffee_2_">
		<g id="XMLID_31_">
			<path id="XMLID_32_" class="st8" d="M414.98,118.73c-16.07-5.92-41.7-5.92-57.24,0c-15.54,5.92-15.54,15.52,0,21.43
				c15.54,5.92,41.17,5.92,57.24,0C431.05,134.24,431.05,124.65,414.98,118.73z"/>
		</g>
		<g id="XMLID_29_">
			<path id="XMLID_30_" class="st7" d="M428.31,92.7l-83.5,0.09l6.33,98.38h0.08c0.4,3.58,3.74,7.12,10.12,9.85
				c13.6,5.83,36.02,5.83,50.09,0c6.6-2.74,10.06-6.27,10.47-9.85h0.08L428.31,92.7z"/>
		</g>
		<g id="XMLID_27_">
			<path id="XMLID_28_" class="st0" d="M344.81,92.8l1.29,19.98c1.92,1.33,4.21,2.59,6.97,3.74c18.06,7.48,47.83,7.48,66.51,0
				c0.81-0.32,1.48-0.68,2.21-1.02c2.98-1.4,5.24-2.95,5.24-2.95l1.28-19.85L344.81,92.8z"/>
		</g>
		<g id="XMLID_9_">
			<g id="XMLID_25_">
				<path id="XMLID_26_" class="st2" d="M433.59,95.61V80.57h-9.73c-1.3-0.68-2.72-1.34-4.28-1.97c-18.68-7.48-48.45-7.48-66.51,0
					c-1.5,0.62-2.83,1.29-4.09,1.97h-9.45v15.04l0,0c0,4.9,4.51,9.8,13.54,13.54c18.06,7.48,47.83,7.48,66.51,0
					C428.92,105.41,433.59,100.51,433.59,95.61z"/>
			</g>
			<g id="XMLID_23_">
				<path id="XMLID_24_" class="st2" d="M419.58,67.03c-18.68-7.48-48.45-7.48-66.51,0c-18.06,7.48-18.06,19.6,0,27.08
					c18.06,7.48,47.83,7.48,66.51,0C438.26,86.63,438.26,74.51,419.58,67.03z"/>
			</g>
			<g id="XMLID_21_" class="st17">
				<path id="XMLID_22_" class="st4" d="M419.58,67.03c-18.68-7.48-48.45-7.48-66.51,0c-18.06,7.48-18.06,19.6,0,27.08
					c18.06,7.48,47.83,7.48,66.51,0C438.26,86.63,438.26,74.51,419.58,67.03z"/>
			</g>
			<path id="XMLID_20_" class="st2" d="M421.6,76.34L421.6,76.34l-3.76-13.75h-62.56l-3.77,13.75h0c-1.4,3.91,1.88,8,9.86,11.01
				c13.58,5.11,35.97,5.11,50.02,0C419.65,84.35,423.05,80.25,421.6,76.34z"/>
			<g id="XMLID_18_">
				<path id="XMLID_19_" class="st2" d="M408.64,55.59c-12.49-4.54-32.41-4.54-44.48,0c-12.08,4.54-12.08,11.91,0,16.45
					c12.08,4.54,31.99,4.54,44.48,0C421.13,67.5,421.13,60.14,408.64,55.59z"/>
			</g>
			<g id="XMLID_16_" class="st17">
				<path id="XMLID_17_" class="st4" d="M408.64,55.59c-12.49-4.54-32.41-4.54-44.48,0c-12.08,4.54-12.08,11.91,0,16.45
					c12.08,4.54,31.99,4.54,44.48,0C421.13,67.5,421.13,60.14,408.64,55.59z"/>
			</g>
			<g id="XMLID_14_">
				<path id="XMLID_15_" class="st2" d="M413.68,63.83c-0.02,0.17-0.35,0.76-1.38,1.56c-0.97,0.73-2.59,1.66-5.12,2.59
					c-5.51,1.99-13.14,3.16-20.92,3.16c-7.78,0-15.28-1.15-20.58-3.13c-2.49-0.93-4.04-1.88-4.95-2.62c-1.02-0.82-1.3-1.43-1.3-1.58
					c0-0.3,1.08-2.23,6.25-4.17c5.3-1.99,12.8-3.13,20.58-3.13c7.78,0,15.41,1.15,20.92,3.16
					C412.36,61.54,413.66,63.44,413.68,63.83z"/>
			</g>
			<g id="XMLID_12_" class="st3">
				<path id="XMLID_13_" d="M412.3,65.39c-0.97,0.73-2.59,1.66-5.12,2.59c-5.51,1.99-13.14,3.16-20.92,3.16
					c-7.78,0-15.28-1.15-20.58-3.13c-2.49-0.93-4.04-1.88-4.95-2.62c0.91-0.74,2.46-1.69,4.95-2.62c5.3-1.99,12.8-3.13,20.58-3.13
					c7.78,0,15.41,1.15,20.92,3.16C409.7,63.72,411.33,64.63,412.3,65.39z"/>
			</g>
			<g id="XMLID_10_">
				<path id="XMLID_11_" class="st8" d="M399.78,65.67c1.82-1.03,4.03-1.45,4.94-0.94c0.91,0.51,0.17,1.77-1.65,2.82
					c-1.82,1.04-4.03,1.47-4.94,0.94C397.23,67.96,397.96,66.7,399.78,65.67z"/>
			</g>
		</g>
		<g id="XMLID_6_">
			<path id="XMLID_8_" class="st12" d="M348.43,165.09c0,3.65,3.66,7.31,10.98,10.1c14.64,5.58,38.78,5.58,53.93,0
				c7.56-2.78,11.34-6.43,11.36-10.08l2.34-35.66c0,3.88-4.02,7.76-12.06,10.72c-16.07,5.92-41.7,5.92-57.24,0
				c-7.77-2.96-11.65-6.84-11.65-10.72L348.43,165.09z"/>
		</g>
		<g id="XMLID_1_">
			<g id="XMLID_4_">
				<path id="XMLID_5_" class="st8" d="M381.5,167.2c-1.36-1.83-2.11-4.07-3.21-6.05c-2.19-3.94-5.32-6.62-9.33-8.21
					c-0.54-0.21-1.2,0.01-1.45,0.53c-2.03,4.13-0.78,9.91,3.41,14.11c4.16,4.16,9.88,5.44,14,3.5c0.23-0.11,0.3-0.57,0.11-0.68
					C383.7,169.62,382.52,168.58,381.5,167.2z"/>
			</g>
			<g id="XMLID_2_">
				<path id="XMLID_3_" class="st8" d="M371.2,151.8c2.16,0.83,4.18,2.13,5.88,3.62c1.82,1.6,3.22,3.64,4.26,5.82
					c1.57,3.33,3.06,5.38,5.36,7.1c0.5,0.37,1.26,0.27,1.61-0.25c2.74-4.15,1.65-10.51-2.87-15.03c-4.29-4.29-10.23-5.52-14.38-3.31
					C370.21,150.2,370.32,151.47,371.2,151.8z"/>
			</g>
		</g>
	</g>
</g>
</svg>
