<?xml version="1.0" encoding="utf-8"?>
<!-- Generator: Adobe Illustrator 24.3.0, SVG Export Plug-In . SVG Version: 6.00 Build 0)  -->
<svg version="1.1" xmlns="http://www.w3.org/2000/svg" xmlns:xlink="http://www.w3.org/1999/xlink" x="0px" y="0px"
	 viewBox="0 0 500 500" style="enable-background:new 0 0 500 500;" xml:space="preserve">
<style type="text/css">
	.st0{fill:#F0F0F0;}
	.st1{opacity:0.7;fill:#F0F0F0;}
	.st2{fill:none;stroke:#263238;stroke-width:0.5;stroke-miterlimit:10;}
	.st3{fill:#263238;stroke:#263238;stroke-width:0.5;stroke-miterlimit:10;}
	.st4{fill:#FFFFFF;stroke:#263238;stroke-width:0.5;stroke-miterlimit:10;}
	.st5{fill:#7DDEC0;}
	.st6{fill:#263238;}
	.st7{fill:#70C7AB;stroke:#263238;stroke-width:0.5;stroke-miterlimit:10;}
	.st8{fill:#7DDEC0;stroke:#263238;stroke-width:0.5;stroke-miterlimit:10;}
	.st9{fill:#D6D6D6;stroke:#263238;stroke-width:0.5;stroke-miterlimit:10;}
</style>
<g id="Background_Simple">
	<g>
		<path class="st0" d="M328.98,37.34c0,0-77.4-27.52-153.37,16.29C99.63,97.45,61.3,184.43,28.38,254.1
			c-32.92,69.67-13.97,140.54,44.03,172.86c58,32.31,97.43-15.32,178.79-17.64c81.36-2.32,103.24,9.31,170.75-36.65
			c67.51-45.96,79.72-154.51,26.46-234.82C395.15,57.54,328.98,37.34,328.98,37.34z"/>
		<path class="st1" d="M328.98,37.34c0,0-77.4-27.52-153.37,16.29C99.63,97.45,61.3,184.43,28.38,254.1
			c-32.92,69.67-13.97,140.54,44.03,172.86c58,32.31,97.43-15.32,178.79-17.64c81.36-2.32,103.24,9.31,170.75-36.65
			c67.51-45.96,79.72-154.51,26.46-234.82C395.15,57.54,328.98,37.34,328.98,37.34z"/>
	</g>
	<line class="st2" x1="11.82" y1="442.63" x2="492.85" y2="442.63"/>
</g>
<g id="Pictures">
	<g>
		<g>
			<rect x="79.3" y="124.96" class="st3" width="100" height="150"/>
			<rect x="87.3" y="136.96" class="st4" width="84" height="126"/>
		</g>
		<circle class="st5" cx="129.8" cy="152.46" r="9.5"/>
		<line class="st2" x1="107.3" y1="170.96" x2="149.3" y2="170.96"/>
		<line class="st2" x1="107.3" y1="243.96" x2="149.3" y2="243.96"/>
		<line class="st2" x1="94.3" y1="194.96" x2="165.3" y2="194.96"/>
		<line class="st2" x1="94.3" y1="201.96" x2="165.3" y2="201.96"/>
		<line class="st2" x1="94.3" y1="208.96" x2="165.3" y2="208.96"/>
		<line class="st2" x1="94.3" y1="215.96" x2="165.3" y2="215.96"/>
		<line class="st2" x1="94.3" y1="222.96" x2="165.3" y2="222.96"/>
	</g>
</g>
<g id="Plants">
	<g>
		<g>
			<path class="st5" d="M55.75,411.28c0,0,0.62-22.32-0.17-41.51c-0.79-19.19,0.8-60.36,0.8-60.36"/>
			<line class="st5" x1="56.01" y1="333.62" x2="47.3" y2="326.76"/>
			<line class="st5" x1="55.92" y1="338.35" x2="59.02" y2="333.32"/>
			<line class="st5" x1="55.21" y1="358.19" x2="62.95" y2="351.79"/>
			<line class="st5" x1="56.39" y1="317.85" x2="52.3" y2="314.14"/>
			<line class="st5" x1="55.14" y1="361.68" x2="50.02" y2="356.19"/>
			<line class="st5" x1="55.59" y1="383.23" x2="44.94" y2="373.51"/>
			<path class="st5" d="M55.86,395.19c0,0,1.92-0.61,7.9-3.69"/>
			<path class="st5" d="M49.99,337.06c-4.27-3.31-18.63-2.72-21.39,4.15c-2.77,6.87,5.97,18.05,14.43,17.27
				c3.3-0.31,4.73-0.54,6.02-2.39l0,0l-11.79-11.52l12.76,10.25c0.35-0.61,0.64-1.3,0.87-2.1c0.15-0.51,0.28-1.05,0.4-1.64
				C52.11,346.98,53.98,340.16,49.99,337.06z"/>
			<path class="st5" d="M77.73,329.1c-0.02,0.08-0.03,0.16-0.05,0.24c-1.16,5.12-7.01,8.02-11.93,7.59
				c-0.7-0.06-1.37-0.19-2.03-0.37c-1.35,2.2-3.35,6.78-1.27,12.41c0.22,0.58,0.5,1.12,0.83,1.63c1.45-1.19,16.97-14.42,16.97-14.42
				l-16.11,15.52c4.84,5.2,16.25,4.48,20.21-5.15C88.26,337.05,83.32,330.48,77.73,329.1z"/>
			<path class="st5" d="M69.83,311.2c-8.35-1.83-15.82,1.96-15.68,10.66c0.06,3.92,1.8,7.72,4.64,10.23l8.52-11.81l-7.24,12.8
				c0.67,0.45,1.39,0.85,2.15,1.16c1.03,0.42,2.14,0.69,3.31,0.79c4.92,0.43,10.77-2.47,11.93-7.59
				C78.76,321.72,78.19,313.04,69.83,311.2z"/>
			<path class="st5" d="M60.09,280.89c0,0-0.86,0.25-6.2,2.87s-9.56,11.07-5.35,18.3c2.4,4.11,5.18,5.67,7.14,6.25l2.14-20.77
				l-0.86,21.04c0.76,0.1,1.22,0.05,1.22,0.05c3.47-0.36,8.96-4.51,9.48-13.02C68.19,287.09,60.09,280.89,60.09,280.89z"/>
			<path class="st5" d="M35.7,299.77l16.11,12.88c0.29-0.97,0.16-1.81,0.16-1.81c-0.74-7.38-8.1-11.65-12.96-13.19
				c-4.86-1.54-8.23,1.21-5.11,8.27c3.12,7.06,11.32,10.42,14.98,9.4c1.06-0.3,1.76-0.8,2.23-1.37L35.7,299.77z"/>
			<path class="st5" d="M46.78,316.29c-3.48,0.12-9.11-2.37-12.39-7.16c-3.38-0.07-6.19,1.53-7.09,5.78
				c-1.64,7.69,3.91,15.74,11.93,14.76c3.5-0.43,5.52-1.63,6.68-2.85l-14.33-13.08l15.34,11.68c0.52-0.99,0.56-1.77,0.56-1.77
				S48.39,319.89,46.78,316.29z"/>
			<path class="st5" d="M46.7,359.03c-1.09,0.51-2.44,0.83-4.12,0.99c-5.24,0.49-10.58-3.62-13.23-8.44
				c-3.22,0.52-5.78,2.24-6.41,5.76c-1.59,9,6.74,20.85,15.16,18.98c2.66-0.59,4.53-1.71,5.85-2.97l-18.38-17.68l19.45,16.49
				c1.87-2.43,2.07-4.92,2.07-4.92S48.68,363.12,46.7,359.03z"/>
			<path class="st5" d="M83.67,377.5c-6.17-7.15-13.53-0.75-13.53-0.75s-4.51,1.49-6.21,7.88c-0.54,2.04-0.44,4.1,0.22,5.88
				l18.59-10.82L64.6,391.53c1.69,3.21,5.38,5.17,10.43,3.75C83.22,392.98,89.84,384.65,83.67,377.5z"/>
		</g>
		<rect x="42.54" y="404.54" class="st6" width="25.73" height="38.1"/>
	</g>
</g>
<g id="Window">
</g>
<g id="Character">
	<g>
		<g>
			<path class="st4" d="M424.73,442.63c4.01-12.63,20.39-64.94,20.39-76.99c0-13.73-4.87-15.51-14.18-18.16
				c-9.3-2.66-86.39-1.33-95.7,0.89c-9.3,2.22-13.29,11.08-15.06,19.05c-1.6,7.19-16.54,64.15-19.45,75.22H424.73z"/>
			<path class="st3" d="M424.73,442.63c4.01-12.63,20.39-64.94,20.39-76.99c0-12.31-3.92-15.01-11.43-17.35l-0.08,0.07
				c0,0-8.42-1.33-11.08,7.97c-2.1,7.36-15.86,63.3-21.51,86.3H424.73z"/>
		</g>
		<g>
			<g>
				<g>
					<g>
						<path class="st4" d="M166.44,372.76c0,0,8.06,8.06,14.71,10.51c6.66,2.45,14.36-1.05,14.36-1.05s-4.9-14.01-16.11-20.32
							C168.19,355.6,163.64,365.76,166.44,372.76z"/>
						<path class="st4" d="M158.39,362.95c0,0-14.36,17.86-11.21,20.32c3.15,2.45,11.56-11.91,12.61-12.61
							C160.84,369.96,162.94,363.3,158.39,362.95z"/>
						<path class="st4" d="M165.39,357.7c0,0-4.9-2.45-7.01,0c-2.1,2.45-1.05,10.51-0.7,16.46c0.35,5.95,1.4,15.06,4.9,12.96
							c3.5-2.1,3.15-18.91,3.15-22.77S165.39,357.7,165.39,357.7z"/>
						<path class="st4" d="M174.85,358.05c0,0-6.3-3.15-9.11-2.45c-2.8,0.7-3.5,18.21-3.5,24.17c0,5.95,4.55,9.46,5.95,7.01
							c1.4-2.45,2.8-20.67,3.85-23.47C173.1,360.5,174.85,358.05,174.85,358.05z"/>
						<path class="st4" d="M252.96,387.12c0,0-1.75-2.8-15.76-5.6c-14.01-2.8-32.93-7.71-35.03-8.76
							c-2.1-1.05-18.91-13.31-23.82-16.11c-4.9-2.8-7.01,1.05-8.06,4.9s-4.55,21.72-4.2,23.47c0.35,1.75,3.5,4.2,4.55,1.75
							c1.05-2.45,5.6-16.46,5.95-17.86c0.35-1.4,11.56,11.21,14.36,14.01c2.8,2.8,5.95,4.55,9.81,4.55c3.85,0,6.3-0.35,6.3-0.35
							s38.53,25.57,45.54,28.72c7.01,3.15,12.96-0.7,13.66-2.8c0.7-2.1,1.4-14.71-2.45-19.26
							C259.96,389.22,252.96,387.12,252.96,387.12z"/>
						<path class="st4" d="M192.71,370.66c0,0-7.01-1.05-13.66-4.55c-6.66-3.5-9.46,1.4-6.66,5.25s11.56,4.9,11.56,4.9
							s5.25,8.41,12.61,10.51c7.36,2.1,12.26-3.15,12.26-3.15"/>
					</g>
					<path class="st7" d="M265.22,331.43c0,0-12.96,43.43-9.46,46.94c3.5,3.5,15.41,12.26,17.16,10.16
						c1.75-2.1,7.01-19.62,7.01-29.77C279.93,348.59,267.67,325.12,265.22,331.43z"/>
					<path class="st7" d="M277.13,385.37c0,0-12.96-10.86-17.16-11.91c-4.2-1.05-4.55-1.4-7.71,4.2c-3.15,5.6-4.2,8.06-1.4,10.16
						c2.8,2.1,12.61,15.41,18.91,16.46C276.08,405.34,277.83,395.53,277.13,385.37z"/>
				</g>
				<g>
					<g>
						<g>
							<g>
								<path class="st8" d="M251.26,442.63H388.3c1.14-4.39,9.19-35.62,12.12-50.26c3.15-15.76,8.76-71.11,8.76-80.21
									c0-9.11-0.35-32.37-5.95-41.48c-5.6-9.11-28.72-28.02-43.43-35.38c-14.71-7.36-26.27-13.66-33.98-14.36
									s-35.73,22.42-44.48,42.73c0,0-17.16,12.61-18.56,20.67c-1.4,8.06-1.4,17.66,2.1,35.88c3.5,18.21,4.9,30.12,4.9,30.12
									s-12.96,38.53-14.71,54.29C253.47,418.99,251.58,439.14,251.26,442.63z"/>
								<path class="st3" d="M277.17,283.17c0,0-3.86,4.29-0.86,4.29c3,0,6.86-5.57,10.29-4.29c3.43,1.29,13.72,8.57,13.72,8.57
									s5.57,3.86,7.29,2.57c1.71-1.29,11.57-13.29,17.15-10.72c5.57,2.57,11.57,9.43,12.43,6c0.86-3.43-5.57-19.72-8.14-27.43
									c-2.57-7.72-29.58-12-39.43-3.43C279.75,267.32,277.17,283.17,277.17,283.17z"/>
								<g>
									<path class="st2" d="M305.26,297.05c0,0-3.62,2.15-3.62,16.87c0,14.71,1.75,29.07,1.75,29.07s-3.15,1.05-2.8,3.15
										c0.35,2.1,5.25,2.45,5.25,2.45s-23.47,53.59-24.87,84.07"/>
									<path class="st2" d="M326.02,339.97c1.51-0.09,2.96-0.14,4.35-0.14"/>
									<path class="st2" d="M284.48,347.19c0,0,19.63-5.03,36.13-6.77"/>
									<path class="st2" d="M293.94,351.05c0,0,22.42-4.9,38.18-5.6"/>
								</g>
							</g>
							<path class="st7" d="M283.67,260.15c0,0-3.55,9.57-6.83,16.67c-3.28,7.11-8.2,10.93-5.19,11.21
								c3.01,0.27,12.85-7.65,15.31-10.11c2.46-2.46,7.38,5.74,9.29,8.75c1.91,3.01,7.65,10.93,9.02,10.39
								c1.37-0.55,16.13-19.68,18.86-22.41c2.73-2.73,9.84,13.94,13.94,17.22c4.1,3.28,2.46-3.55,1.91-7.65
								c-0.55-4.1-2.73-37.44-5.47-52.75c-2.73-15.31-12.03-21.59-16.95-22.14c-4.92-0.55-13.12,0-18.04,6.29
								C294.61,221.89,283.67,260.15,283.67,260.15z"/>
						</g>
						<g>
							<path class="st4" d="M286.41,262.07c0,0,10.11,12.3,13.12,22.14c3.01,9.84,5.74,15.58,7.11,12.3
								c1.37-3.28,13.12-35.8,13.94-51.11c0.82-15.31-0.27-22.14-1.91-27.06c-1.64-4.92-6.83-16.95-6.83-16.95
								s-9.84-1.09-12.85,5.74c-3.01,6.83-9.02,32.25-12.3,40.45C283.4,255.78,286.41,262.07,286.41,262.07z"/>
							<path class="st3" d="M309.7,218.84l-9.99-7.97l-5.94,12.99c-2.55,9.11-5.25,19.13-7.09,23.73
								c-3.28,8.2-0.27,14.49-0.27,14.49s5.14,6.26,9.19,13.42C306.03,254.92,309.7,218.84,309.7,218.84z"/>
						</g>
					</g>
					<g>
						<path class="st4" d="M223.96,160.51c0,0-6.32,18.27-1.76,26.35c4.57,8.08,14.05,17.22,18.62,29.16
							c4.57,11.95,9.49,23.89,8.78,32.33c-0.7,8.43-0.7,18.62,4.92,23.54c5.62,4.92,21.08,4.57,32.68-4.22
							c11.6-8.78,12.3-27.06,12.3-27.06s9.84-15.11,10.19-21.78c0.35-6.68,0.35-13,0.35-13s10.19-7.38,10.19-20.73
							s-5.27-13.7-5.27-13.7s-5.27-5.62-7.03-15.11c-1.76-9.49-4.57-19.68-13-22.49c-8.43-2.81-29.51,2.81-42.87,10.54
							C238.72,152.08,223.96,160.51,223.96,160.51z"/>
						<path class="st3" d="M238.37,165.43c0,0-5.27-5.62-13.7-2.46c-8.43,3.16-9.49,13.35-9.49,13.35s-6.68-2.46-6.68-6.32
							c0-3.87,0-6.32,0-6.32s-6.68,5.62-4.92,10.54c1.76,4.92,6.68,7.03,6.68,7.03s-13.35-0.7-17.57-8.08
							c-4.22-7.38,3.87-14.76,3.87-14.76l-4.57-0.35c0,0,4.92-7.03,11.95-8.78s10.54-1.05,10.54-1.05l-6.32-2.46
							c0,0,6.68-6.32,12.3-7.38c5.62-1.05,9.14-0.7,9.14-0.7s21.78-16.16,41.11-17.57c19.33-1.41,35.14,8.43,39.7,18.62
							c4.57,10.19,4.57,27.06,4.57,29.87s0,2.81,0,2.81s-7.03,0-8.78,4.22c-1.76,4.22,0.7,9.84-2.11,11.24
							c-2.81,1.41-7.73-1.76-9.84-4.92c-2.11-3.16-0.35-7.38-2.81-9.14c-2.46-1.76-11.24,1.05-16.51-2.46
							c-5.27-3.51-3.86-15.11-1.05-19.33c2.81-4.22,19.33-11.24,18.27-13.7c-1.05-2.46-17.57,8.78-20.38,12.3
							c-2.81,3.51-13,10.89-20.03,13.35C244.7,165.43,238.37,165.43,238.37,165.43z"/>
						<path class="st4" d="M304.08,186.86c2.81-1.41,0.35-7.03,2.11-11.24c1.76-4.22,8.78-4.22,8.78-4.22s0,0,0-2.81
							c0-2.12,0-12.19-1.95-21.39c-6.04,0-11.77,0.94-16.23,3.17c-5.83,2.92-1.46,2.19,2.92,4.37c4.37,2.19-8.02,2.92-16.76,7.29
							c-8.75,4.37-8.03,8.31-8.03,8.31c5.27,3.51,14.05,0.7,16.51,2.46c2.46,1.76,0.7,5.97,2.81,9.14
							C296.35,185.11,301.27,188.27,304.08,186.86z"/>
						<path class="st3" d="M306.57,174.61c-0.42-0.16-0.91-0.06-1.22,0.3l-14.76,17.22c-0.39,0.46-0.34,1.15,0.12,1.54
							c0.21,0.18,0.46,0.26,0.71,0.26c0.31,0,0.61-0.13,0.83-0.38l13.24-15.45C305.65,176.39,306.11,175.3,306.57,174.61z"/>
						<g>
							<path class="st3" d="M289.03,227.92c-7.43-2.4-23.49-0.72-26.84,1.68c0,0-8.91,6.64-13.41,9.79
								c0.72,3.27,1.06,6.29,0.84,8.97c-0.7,8.43-0.7,18.62,4.92,23.54c5.62,4.92,21.08,4.57,32.68-4.22
								c11.6-8.78,12.3-27.06,12.3-27.06S296.46,230.32,289.03,227.92z"/>
							<path class="st4" d="M256.67,239.42c0,0,2.22,4.97,11.69,4.97s12.39-11.66,12.39-11.66s-8.02-3.64-14.58-2.19
								C259.62,232,256.67,239.42,256.67,239.42z"/>
							<path class="st3" d="M243.86,200.08c0.68,1.94,0.42,3.79-0.58,4.14c-1,0.35-2.36-0.94-3.04-2.87
								c-0.68-1.94-0.42-3.79,0.58-4.14C241.82,196.86,243.18,198.15,243.86,200.08z"/>
							<path class="st3" d="M268.31,194.57c0.68,1.94,0.42,3.79-0.58,4.14c-1,0.35-2.36-0.94-3.04-2.87
								c-0.68-1.94-0.42-3.79,0.58-4.14C266.27,191.35,267.63,192.64,268.31,194.57z"/>
							<g>
								<path class="st2" d="M222.56,206.19l68.87-13.35c0,0,2.11,12.3-1.76,15.11c-3.86,2.81-19.33,4.92-23.54,4.57
									c-4.22-0.35-9.12-10.12-9.12-10.12l-4.58,0.98c0,0,0,3.51,0.35,6.32c0.35,2.81,0.35,4.92,0.35,4.92v0.35
									c0,0-3.87,2.81-10.54,3.87C235.91,219.89,227.48,222.35,222.56,206.19z"/>
								<line class="st2" x1="252.43" y1="203.38" x2="251.95" y2="201.09"/>
								<line class="st2" x1="257.01" y1="202.4" x2="256.19" y2="200.11"/>
							</g>
							<path class="st3" d="M228.31,195.72c-0.17,0.08-0.33,0.2-0.44,0.36l-6.22,9.5c-0.33,0.5-0.19,1.18,0.32,1.51
								c0.18,0.12,0.39,0.18,0.6,0.18c0.36,0,0.71-0.17,0.92-0.49l6.12-9.35L228.31,195.72z"/>
							<path class="st2" d="M253.06,205.04c0,0,1.09,16.03,2.92,19.68c1.82,3.64,16.76,0,17.86-2.55c1.09-2.55-1.09-5.47-1.09-5.47
								h-3.64"/>
							<path class="st3" d="M243.49,191.97c0,0-3.12-2.16-6.47-0.48c-3.36,1.68-5.27,5.27-6.23,5.27c-0.96,0-0.48-6.23,3.36-8.63
								c3.83-2.4,8.87,0.72,9.83,1.92C244.93,191.25,244.45,192.45,243.49,191.97z"/>
							<path class="st3" d="M270.72,183.68c0,0-2.22-3.07-5.94-2.6c-3.72,0.47-6.73,3.22-7.63,2.9c-0.9-0.32,1.62-6.04,6.03-7.02
								c4.41-0.99,8.12,3.62,8.63,5.07C272.32,183.48,271.47,184.45,270.72,183.68z"/>
							<path class="st2" d="M240.62,208.03c0,0,5.75-1.68,9.11-5.75"/>
							<path class="st2" d="M262.19,199.64c0,0,3.6,2.16,11.02,1.44"/>
							<path class="st3" d="M255.98,224.71c0,0-4.34,5.12-7.69,7.52c-3.36,2.4-7.19,2.64-6.95,4.31c0.24,1.68,8.87,5.03,15.34,2.88
								c6.47-2.16,9.11-5.51,9.11-5.51s5.75,5.27,14.14,4.07c8.39-1.2,16.54-10.55,17.5-12.7s-1.92,1.44-9.11,0.24
								c-7.19-1.2-14.48-3.36-14.48-3.36s-2.54,1.92-8.29,3.36C259.79,226.96,256.96,224.86,255.98,224.71z"/>
							<path class="st2" d="M250.33,173.79c0,0,6.83-9.29,15.31-4.37"/>
						</g>
					</g>
				</g>
			</g>
			<g>
				<g>
					<path class="st4" d="M200.42,375.56c0,0-5.6,0.35-9.46-2.45c-3.85-2.8-7.71-0.7-8.06,2.1c-0.35,2.8,3.15,8.06,7.36,9.81
						c4.2,1.75,14.71,1.4,17.16,1.75c2.45,0.35,6.3,6.3,13.66,9.11c7.36,2.8,18.91,2.1,18.91,2.1s-0.35-11.56-4.2-17.16
						c-3.85-5.6-16.81-11.56-22.77-9.11C207.07,374.16,200.42,375.56,200.42,375.56z"/>
					<path class="st4" d="M207.42,367.86c0,0-4.55,0.35-6.66,3.15c-2.1,2.8-9.11,18.21-9.11,22.77c0,4.55,2.45,9.81,4.2,7.36
						s2.1-10.51,3.5-14.36c1.4-3.85,8.41-15.41,9.46-16.11C209.88,369.96,208.47,367.51,207.42,367.86z"/>
					<path class="st4" d="M217.58,366.11c0,0-5.6-3.15-8.41-1.75s-6.66,16.81-7.01,21.37c-0.35,4.55,1.05,21.37,5.25,21.02
						c4.2-0.35,2.1-10.86,2.1-17.86c0-7.01,7.01-17.16,7.01-17.16L217.58,366.11z"/>
					<path class="st4" d="M354.89,373.81c0,0-1.4,3.85-23.82,5.95c-22.42,2.1-72.51,5.25-73.56,5.25
						c-1.05,0-23.12-14.71-29.42-18.91c-6.3-4.2-10.16-3.85-12.96-1.05c-2.8,2.8-9.11,21.02-8.76,23.82
						c0.35,2.8,1.75,15.41,4.2,16.46s3.15-1.05,3.15-4.55c0-3.5-0.7-15.41-0.7-15.41l9.46-8.41c0,0,12.96,23.47,22.77,25.57
						c9.81,2.1,17.16,0,17.16,0s50.09,17.16,80.56,17.51c30.47,0.35,51.14,3.5,55.34-8.06c4.2-11.56-27.67-37.48-31.52-38.88
						C362.95,371.71,354.89,373.81,354.89,373.81z"/>
					<path class="st4" d="M235.1,378.37c0,0-8.06-6.66-10.51-6.3c-2.45,0.35-10.16,5.6-13.31,7.36c-3.15,1.75-8.76,5.6-12.26,10.51
						c-3.5,4.9-0.35,7.36,1.4,5.6c1.75-1.75,8.06-7.36,9.46-8.41c1.4-1.05,11.91-5.95,11.91-5.95l16.81,12.61"/>
				</g>
				<g>
					<path class="st8" d="M369.6,280.49c0,0-13.31,7.15-13.66,20.82c-0.35,13.66,2.45,59.55,2.45,59.55s-4.55,7.01,1.4,11.21
						c5.95,4.2,40.28,24.52,44.83,17.86c4.55-6.66,9.81-51.49,9.81-83.37s-5.95-30.97-9.81-36.58c-3.85-5.6-10.86-7.36-10.86-7.36"
						/>
					<path class="st8" d="M386.41,364.71c0,0-23.12-7.71-26.62-7.36c-3.5,0.35-3.85,5.6-8.06,10.51c-4.2,4.9-3.87,9.21-2.47,9.91
						c1.4,0.7,19.05,4.12,30.61,16.03c11.56,11.91,11.44,24.85,15.64,24.5c4.2-0.35,4.55-6.66,8.06-16.81
						c3.5-10.16,7.71-17.86,4.9-25.22C405.68,368.91,386.41,364.71,386.41,364.71z"/>
					<path class="st2" d="M351.04,369.96c0,0,23.12-2.1,37.83,9.46"/>
					<path class="st2" d="M366.45,366.81c0,0,20.67,3.15,28.72,12.96"/>
				</g>
			</g>
		</g>
		<g>
			<g>
				<path class="st4" d="M300.23,442.63h10.7c44.81-13.95,108.73-1.98,109.39-1.85c5.04,0.96,9.91-2.33,10.88-7.37
					c0.97-5.04-2.33-9.91-7.37-10.88c-2.92-0.56-72.11-13.56-121.73,3.44c-4.86,1.66-7.44,6.95-5.78,11.8
					C297.05,439.88,298.47,441.54,300.23,442.63z"/>
			</g>
			<g>
				<path class="st3" d="M307.76,442.63h10.7c44.81-13.95,108.73-1.98,109.39-1.85c5.04,0.96,9.91-2.33,10.88-7.37
					c0.97-5.04-2.33-9.91-7.37-10.88c-2.92-0.56-72.11-13.56-121.73,3.44c-4.86,1.66-7.44,6.95-5.78,11.8
					C304.58,439.88,306,441.54,307.76,442.63z"/>
			</g>
		</g>
	</g>
</g>
<g id="Ashtray">
</g>
<g id="Typewriter">
	<g>
		<path class="st9" d="M120.05,366.74h26.71c0,0,5.64,8.61,6.23,19.29h-27.9L120.05,366.74z"/>
		<path class="st9" d="M131.44,384.6c0,0-7.12-23.92-18.16-24.81c-17.94-1.44-48.75,0.89-48.75,0.89s24.82,10.63,26.15,29.68h43.42
			L131.44,384.6z"/>
		<path class="st4" d="M113.28,359.79c0,0-4.43-1.33-8.42,0.89c-3.99,2.22-12.85,14.62-12.85,14.62H43.27
			c0,0,11.52-10.19,21.27-14.62C74.28,356.24,100.02,357.09,113.28,359.79z"/>
		<path class="st3" d="M70.75,382.38h71.49c4.68,0,9.09,2.18,11.91,5.92c5.74,7.62,17.09,20.4,31.35,24.65
			c13.01,3.88,22.05,3.95,26.99,3.45c2.43-0.24,4.5,1.72,4.4,4.17c-0.21,5.01-0.95,12.49-3.48,15.86c-3.99,5.32-10.19,6.2-10.19,6.2
			H66.32c0,0-13.29-5.32-10.19-20.82C59.23,406.3,70.75,382.38,70.75,382.38z"/>
		<path class="st4" d="M98.21,382.38h71.49c4.68,0,9.09,2.18,11.91,5.92c5.74,7.62,17.09,20.4,31.35,24.65
			c13.01,3.88,22.05,3.95,26.99,3.45c2.43-0.24,4.5,1.72,4.4,4.17c-0.21,5.01-0.95,12.49-3.48,15.86c-3.99,5.32-10.19,6.2-10.19,6.2
			H93.78c0,0-13.29-5.32-10.19-20.82C86.7,406.3,98.21,382.38,98.21,382.38z"/>
		
			<ellipse transform="matrix(0.7071 -0.7071 0.7071 0.7071 -245.8305 212.9186)" class="st4" cx="134.1" cy="403.2" rx="11.52" ry="11.52"/>
		
			<ellipse transform="matrix(0.7071 -0.7071 0.7071 0.7071 -244.7924 215.4248)" class="st3" cx="137.64" cy="403.2" rx="11.52" ry="11.52"/>
	</g>
</g>
</svg>
